<svg id="Layer_1" data-name="Layer 1" xmlns="http://www.w3.org/2000/svg" viewBox="0 0 509.97 106.88"><defs><style>.cls-1{fill:#93d500;}.cls-2{fill:#4d5858;}</style></defs><title>smartpulse-logo-12</title><path class="cls-1" d="M317.92,491.81a.79.79,0,0,1-.56-.23.58.58,0,0,1-.1-.12.61.61,0,0,1-.07-.14.66.66,0,0,1-.05-.15.76.76,0,0,1,0-.15.86.86,0,0,1,0-.16.58.58,0,0,1,.05-.14.61.61,0,0,1,.07-.14.58.58,0,0,1,.1-.12.81.81,0,0,1,1.12,0,.58.58,0,0,1,.1.12.64.64,0,0,1,.08.14.57.57,0,0,1,0,.14.88.88,0,0,1,0,.16.77.77,0,0,1,0,.15.66.66,0,0,1,0,.15.64.64,0,0,1-.08.14.58.58,0,0,1-.1.12A.79.79,0,0,1,317.92,491.81Z" transform="translate(-245.02 -446.56)"/><path class="cls-1" d="M314.92,490.66a.79.79,0,0,1-.44-1h0a.8.8,0,0,1,1-.44h0a.78.78,0,0,1,.44,1h0a.79.79,0,0,1-.73.5h0A.8.8,0,0,1,314.92,490.66Zm-2.7-1.09a.8.8,0,0,1-.45-1h0a.79.79,0,0,1,1-.44h0a.79.79,0,0,1,.44,1h0a.8.8,0,0,1-.74.5h0A.72.72,0,0,1,312.22,489.57Zm-2.71-1.09a.8.8,0,0,1-.44-1h0a.8.8,0,0,1,1-.44h0a.79.79,0,0,1,.44,1h0a.78.78,0,0,1-.73.49h0A1,1,0,0,1,309.51,488.48Zm-2.7-1.1a.78.78,0,0,1-.44-1h0a.79.79,0,0,1,1-.44h0a.8.8,0,0,1,.44,1h0a.81.81,0,0,1-.74.49h0A.72.72,0,0,1,306.81,487.38Z" transform="translate(-245.02 -446.56)"/><path class="cls-1" d="M304.4,486.35a.77.77,0,0,1-.56-.23.82.82,0,0,1-.24-.57.77.77,0,0,1,0-.15.83.83,0,0,1,0-.15,1,1,0,0,1,.08-.14l.1-.12a.63.63,0,0,1,.12-.1l.13-.07.15,0a.81.81,0,0,1,.31,0l.15,0,.14.07.12.1.1.12a.91.91,0,0,1,.07.14.88.88,0,0,1,.05.15.76.76,0,0,1,0,.15.86.86,0,0,1,0,.16.88.88,0,0,1-.05.15.91.91,0,0,1-.07.14l-.1.12a.94.94,0,0,1-.12.09l-.14.08-.15,0A.39.39,0,0,1,304.4,486.35Z" transform="translate(-245.02 -446.56)"/><path class="cls-2" d="M294.58,493.23a.8.8,0,0,1,.13-1.12h0a.8.8,0,0,1,1.12.14h0a.8.8,0,0,1-.14,1.12h0a.8.8,0,0,1-.49.16h0A.76.76,0,0,1,294.58,493.23Zm2.29-1.8a.79.79,0,0,1,.14-1.11h0a.8.8,0,0,1,1.12.13h0a.8.8,0,0,1-.14,1.12h0a.83.83,0,0,1-.49.17h0A.81.81,0,0,1,296.87,491.43Zm2.3-1.79a.8.8,0,0,1,.14-1.12h0a.8.8,0,0,1,1.12.14h0a.79.79,0,0,1-.14,1.11h0a.77.77,0,0,1-.49.17h0A.81.81,0,0,1,299.17,489.64Zm2.3-1.8a.79.79,0,0,1,.14-1.11h0a.79.79,0,0,1,1.11.13h0a.8.8,0,0,1-.13,1.12h0a.83.83,0,0,1-.49.17h0A.81.81,0,0,1,301.47,487.84Z" transform="translate(-245.02 -446.56)"/><path class="cls-1" d="M292.9,495.33a.83.83,0,0,1-.56-.23.79.79,0,0,1-.23-.56.81.81,0,0,1,0-.16.88.88,0,0,1,.05-.15.91.91,0,0,1,.07-.14l.1-.12a.82.82,0,0,1,.72-.21l.15,0,.13.07.13.1a.94.94,0,0,1,.09.12,1,1,0,0,1,.08.14.83.83,0,0,1,0,.15.78.78,0,0,1,0,.16.83.83,0,0,1-.23.56l-.13.1-.13.07-.15,0Z" transform="translate(-245.02 -446.56)"/><path class="cls-1" d="M293.74,506.2a.79.79,0,0,1,.68-.89h0a.79.79,0,0,1,.89.67h0a.8.8,0,0,1-.67.9h-.11A.8.8,0,0,1,293.74,506.2Zm-.41-2.89a.81.81,0,0,1,.68-.9h0a.81.81,0,0,1,.9.68h0a.79.79,0,0,1-.68.9h-.11A.8.8,0,0,1,293.33,503.31Zm-.4-2.89a.79.79,0,0,1,.67-.89h0a.79.79,0,0,1,.9.67h0a.79.79,0,0,1-.68.9h-.11A.79.79,0,0,1,292.93,500.42Zm-.41-2.89a.79.79,0,0,1,.68-.89h0a.79.79,0,0,1,.89.67h0a.79.79,0,0,1-.67.9h-.11A.8.8,0,0,1,292.52,497.53Z" transform="translate(-245.02 -446.56)"/><path class="cls-1" d="M294.93,509.78a.8.8,0,0,1-.56-.24.8.8,0,0,1,0-1.12l.12-.1.14-.07.15-.05a.81.81,0,0,1,.31,0l.15.05.13.07.13.1a.83.83,0,0,1,.23.56,1,1,0,0,1,0,.16.74.74,0,0,1,0,.14c0,.05-.05.1-.08.14a.54.54,0,0,1-.09.12A.82.82,0,0,1,294.93,509.78Z" transform="translate(-245.02 -446.56)"/><path class="cls-2" d="M305.46,514.09a.79.79,0,0,1-.44-1h0a.78.78,0,0,1,1-.43h0a.79.79,0,0,1,.44,1h0a.8.8,0,0,1-.74.5h0A.72.72,0,0,1,305.46,514.09Zm-2.71-1.1a.79.79,0,0,1-.44-1h0a.8.8,0,0,1,1-.44h0a.8.8,0,0,1,.43,1h0a.78.78,0,0,1-.73.49h0A.65.65,0,0,1,302.75,513ZM300,511.9a.78.78,0,0,1-.43-1h0a.78.78,0,0,1,1-.44h0a.8.8,0,0,1,.44,1h0a.81.81,0,0,1-.74.5h0A.8.8,0,0,1,300,511.9Zm-2.7-1.09a.79.79,0,0,1-.44-1h0a.79.79,0,0,1,1-.44h0a.78.78,0,0,1,.43,1h0a.79.79,0,0,1-.73.5h0A.8.8,0,0,1,297.34,510.81Z" transform="translate(-245.02 -446.56)"/><path class="cls-1" d="M308.46,515.24l-.16,0-.15,0-.13-.07a.63.63,0,0,1-.12-.1.8.8,0,0,1-.24-.56.78.78,0,0,1,0-.16.83.83,0,0,1,0-.15,1,1,0,0,1,.08-.14l.1-.12a.38.38,0,0,1,.12-.09l.13-.08.15,0a.79.79,0,0,1,.72.21.81.81,0,0,1,0,1.13A.83.83,0,0,1,308.46,515.24Z" transform="translate(-245.02 -446.56)"/><path class="cls-1" d="M310.13,513.14a.8.8,0,0,1,.14-1.12h0a.8.8,0,0,1,1.11.14h0a.79.79,0,0,1-.13,1.11h0a.77.77,0,0,1-.49.17h0A.8.8,0,0,1,310.13,513.14Zm2.3-1.8a.79.79,0,0,1,.14-1.11h0a.79.79,0,0,1,1.11.13h0a.8.8,0,0,1-.14,1.12h0a.79.79,0,0,1-.49.17h0A.79.79,0,0,1,312.43,511.34Zm2.3-1.79a.8.8,0,0,1,.14-1.12h0a.79.79,0,0,1,1.11.14h0a.79.79,0,0,1-.14,1.11h0a.79.79,0,0,1-.49.17h0A.78.78,0,0,1,314.73,509.55Zm2.3-1.8a.8.8,0,0,1,.13-1.12h0a.81.81,0,0,1,1.12.14h0a.8.8,0,0,1-.14,1.12h0a.79.79,0,0,1-.48.16h0A.78.78,0,0,1,317,507.75Z" transform="translate(-245.02 -446.56)"/><path class="cls-1" d="M320,506.26a.83.83,0,0,1-.56-.23l-.1-.12a.91.91,0,0,1-.07-.14.88.88,0,0,1-.05-.15.81.81,0,0,1,0-.16.76.76,0,0,1,0-.15.88.88,0,0,1,.05-.15.91.91,0,0,1,.07-.14l.1-.12a.83.83,0,0,1,1.12,0l.1.12a1,1,0,0,1,.08.14.83.83,0,0,1,0,.15.61.61,0,0,1,0,.31.83.83,0,0,1,0,.15,1,1,0,0,1-.08.14l-.1.12A.81.81,0,0,1,320,506.26Z" transform="translate(-245.02 -446.56)"/><path class="cls-2" d="M318.76,502.68a.79.79,0,0,1,.67-.89h0a.79.79,0,0,1,.9.68h0a.79.79,0,0,1-.67.89h-.11A.79.79,0,0,1,318.76,502.68Zm-.41-2.88a.8.8,0,0,1,.68-.9h0a.8.8,0,0,1,.9.68h0a.79.79,0,0,1-.68.89h-.11A.8.8,0,0,1,318.35,499.8Zm-.4-2.89a.79.79,0,0,1,.67-.9h0a.79.79,0,0,1,.9.68h0a.79.79,0,0,1-.68.89h-.11A.78.78,0,0,1,318,496.91Zm-.41-2.89a.8.8,0,0,1,.68-.9h0a.8.8,0,0,1,.9.68h0a.8.8,0,0,1-.68.89h-.11A.8.8,0,0,1,317.54,494Z" transform="translate(-245.02 -446.56)"/><path class="cls-1" d="M312.32,491.13a.61.61,0,0,1-.46,0l-.1-.05-.09-.08-.07-.09a.6.6,0,0,1-.06-.11l0-.11a.49.49,0,0,1,0-.12s0-.08,0-.12l0-.11a.64.64,0,0,1,.8-.3l.1.06.09.08a.35.35,0,0,1,.07.09l.05.1a.27.27,0,0,1,0,.12.37.37,0,0,1,0,.11s0,.08,0,.12,0,.08,0,.11A.64.64,0,0,1,312.32,491.13Z" transform="translate(-245.02 -446.56)"/><path class="cls-1" d="M309.89,491.13a.61.61,0,0,1-.59-.61h0a.6.6,0,0,1,.61-.59h0a.6.6,0,0,1,.59.61h0a.61.61,0,0,1-.39.55h0A.78.78,0,0,1,309.89,491.13Zm-2.2,0a.6.6,0,0,1-.59-.61h0a.6.6,0,0,1,.61-.59h0a.6.6,0,0,1,.59.61h0a.62.62,0,0,1-.39.55h0A.78.78,0,0,1,307.69,491.09Zm-2.2,0a.6.6,0,0,1-.59-.61h0a.59.59,0,0,1,.61-.59h0a.6.6,0,0,1,.59.61h0a.62.62,0,0,1-.39.55h0A.78.78,0,0,1,305.49,491.05Zm-2.2,0a.6.6,0,0,1-.59-.61h0a.6.6,0,0,1,.61-.59h0a.6.6,0,0,1,.59.61h0a.62.62,0,0,1-.39.55h0A.85.85,0,0,1,303.29,491Z" transform="translate(-245.02 -446.56)"/><path class="cls-1" d="M301.31,490.93a.66.66,0,0,1-.46,0,.61.61,0,0,1-.31-.34.36.36,0,0,1,0-.11v-.12a.41.41,0,0,1,0-.11.56.56,0,0,1,0-.12.27.27,0,0,1,.06-.1l.07-.09.1-.07a.54.54,0,0,1,.21-.08h.24l.11,0,.1.06.09.08.07.09,0,.1a.56.56,0,0,1,0,.12.48.48,0,0,1,0,.12.45.45,0,0,1,0,.11.36.36,0,0,1,0,.11.21.21,0,0,1-.06.1.22.22,0,0,1-.07.09l-.1.07A.33.33,0,0,1,301.31,490.93Z" transform="translate(-245.02 -446.56)"/><path class="cls-2" d="M296.25,498.43a.59.59,0,0,1-.21-.82h0a.59.59,0,0,1,.82-.21h0a.6.6,0,0,1,.21.83h0a.67.67,0,0,1-.3.25h0A.6.6,0,0,1,296.25,498.43Zm1.13-1.89a.59.59,0,0,1-.2-.82h0a.61.61,0,0,1,.82-.21h0a.61.61,0,0,1,.2.83h0a.57.57,0,0,1-.3.25h0A.6.6,0,0,1,297.38,496.54Zm1.14-1.88a.61.61,0,0,1-.21-.83h0a.6.6,0,0,1,.82-.2h0a.59.59,0,0,1,.21.82h0a.56.56,0,0,1-.3.25h0A.6.6,0,0,1,298.52,494.66Zm1.13-1.89a.6.6,0,0,1-.2-.82h0a.59.59,0,0,1,.82-.21h0a.61.61,0,0,1,.2.83h0a.62.62,0,0,1-.3.25h0A.6.6,0,0,1,299.65,492.77Z" transform="translate(-245.02 -446.56)"/><path class="cls-1" d="M295.64,500.36a.61.61,0,0,1-.46,0,.64.64,0,0,1-.32-.33l0-.12a.41.41,0,0,1,0-.11.5.5,0,0,1,0-.12.35.35,0,0,1,0-.11.64.64,0,0,1,.45-.35h.12l.11,0,.11,0,.11.06.09.08.07.09a.54.54,0,0,1,.05.11.61.61,0,0,1,0,.46l-.06.1-.08.09-.09.07Z" transform="translate(-245.02 -446.56)"/><path class="cls-1" d="M299.16,507.8a.61.61,0,0,1,.24-.82h0a.6.6,0,0,1,.81.24h0a.6.6,0,0,1-.23.81h0l-.08,0h0A.61.61,0,0,1,299.16,507.8Zm-1.06-1.93a.59.59,0,0,1,.23-.81h0a.59.59,0,0,1,.81.23h0a.61.61,0,0,1-.23.82h0l-.08,0h0A.58.58,0,0,1,298.1,505.87ZM297,503.94a.59.59,0,0,1,.23-.81h0a.6.6,0,0,1,.82.23h0a.61.61,0,0,1-.24.82h0l-.07,0h0A.6.6,0,0,1,297,503.94ZM296,502a.61.61,0,0,1,.24-.82h0a.6.6,0,0,1,.81.24h0a.59.59,0,0,1-.23.81h0l-.08,0h0A.62.62,0,0,1,296,502Z" transform="translate(-245.02 -446.56)"/><path class="cls-1" d="M301,510a.61.61,0,0,1-.78-.34.66.66,0,0,1,0-.46l.06-.1.08-.09.09-.07a.6.6,0,0,1,.22-.09h.12l.12,0,.11,0a.56.56,0,0,1,.31.33.23.23,0,0,1,0,.11.49.49,0,0,1,0,.12.37.37,0,0,1,0,.11.6.6,0,0,1-.37.43Z" transform="translate(-245.02 -446.56)"/><path class="cls-2" d="M309.55,510.19a.6.6,0,0,1-.59-.61h0a.61.61,0,0,1,.61-.59h0a.61.61,0,0,1,.59.61h0a.61.61,0,0,1-.39.55h0A.54.54,0,0,1,309.55,510.19Zm-2.21,0a.59.59,0,0,1-.58-.61h0a.6.6,0,0,1,.61-.59h0a.61.61,0,0,1,.59.61h0a.61.61,0,0,1-.39.55h0A.59.59,0,0,1,307.34,510.15Zm-2.2,0a.59.59,0,0,1-.58-.61h0a.6.6,0,0,1,.61-.59h0a.61.61,0,0,1,.59.61h0a.6.6,0,0,1-.39.55h0A.59.59,0,0,1,305.14,510.11Zm-2.2,0a.6.6,0,0,1-.59-.61h0a.61.61,0,0,1,.61-.59h0a.6.6,0,0,1,.59.61h0a.58.58,0,0,1-.38.55h0A.59.59,0,0,1,302.94,510.07Z" transform="translate(-245.02 -446.56)"/><path class="cls-1" d="M312,510.19a.2.2,0,0,1-.11,0h-.23l-.11,0a.64.64,0,0,1-.32-.33l0-.12a.45.45,0,0,1,0-.11s0-.08,0-.12,0-.08,0-.11l.06-.1a.24.24,0,0,1,.08-.09.31.31,0,0,1,.09-.07.59.59,0,0,1,.56-.05.63.63,0,0,1,.32.34.66.66,0,0,1,0,.46A.65.65,0,0,1,312,510.19Z" transform="translate(-245.02 -446.56)"/><path class="cls-1" d="M312.58,508.26a.61.61,0,0,1-.2-.83h0a.6.6,0,0,1,.82-.2h0a.59.59,0,0,1,.21.82h0a.56.56,0,0,1-.3.25h0A.59.59,0,0,1,312.58,508.26Zm1.14-1.89a.6.6,0,0,1-.21-.82h0a.61.61,0,0,1,.83-.21h0a.61.61,0,0,1,.2.83h0a.61.61,0,0,1-.3.25h0A.6.6,0,0,1,313.72,506.37Zm1.14-1.88a.61.61,0,0,1-.21-.83h0a.6.6,0,0,1,.82-.2h0a.59.59,0,0,1,.21.82h0a.56.56,0,0,1-.3.25h0A.6.6,0,0,1,314.86,504.49ZM316,502.6a.61.61,0,0,1-.21-.82h0a.61.61,0,0,1,.83-.21h0a.6.6,0,0,1,.2.82h0a.56.56,0,0,1-.3.25h0A.57.57,0,0,1,316,502.6Z" transform="translate(-245.02 -446.56)"/><path class="cls-1" d="M317.65,500.76a.66.66,0,0,1-.46,0l-.1-.06-.09-.08-.07-.09-.06-.11,0-.11s0-.08,0-.12a.36.36,0,0,1,0-.11.56.56,0,0,1,0-.12.62.62,0,0,1,.79-.3l.1.06.09.08a.35.35,0,0,1,.07.09.47.47,0,0,1,.05.1.27.27,0,0,1,0,.12.45.45,0,0,1,0,.11.49.49,0,0,1,0,.12.36.36,0,0,1,0,.11A.58.58,0,0,1,317.65,500.76Z" transform="translate(-245.02 -446.56)"/><path class="cls-2" d="M315.84,498.56a.6.6,0,0,1,.24-.81h0a.59.59,0,0,1,.81.23h0a.6.6,0,0,1-.23.82h0l-.08,0h0A.59.59,0,0,1,315.84,498.56Zm-1.06-1.92a.6.6,0,0,1,.23-.82h0a.61.61,0,0,1,.82.24h0a.6.6,0,0,1-.24.81h0l-.08,0h0A.6.6,0,0,1,314.78,496.64Zm-1.07-1.93a.6.6,0,0,1,.23-.82h0a.61.61,0,0,1,.82.24h0a.6.6,0,0,1-.24.81h0l-.07,0h0A.61.61,0,0,1,313.71,494.71Zm-1.07-1.93a.6.6,0,0,1,.24-.81h0a.59.59,0,0,1,.81.23h0a.6.6,0,0,1-.23.82h0l-.08,0h0A.59.59,0,0,1,312.64,492.78Z" transform="translate(-245.02 -446.56)"/><path class="cls-1" d="M291.6,490.18a.55.55,0,0,1-.18,0l-.18-.05a.91.91,0,0,1-.17-.09.53.53,0,0,1-.14-.12.81.81,0,0,1-.12-.14,1.29,1.29,0,0,1-.09-.16,1.33,1.33,0,0,1-.05-.19,1.1,1.1,0,0,1,0-.18,1.37,1.37,0,0,1,0-.19,1.21,1.21,0,0,1,.05-.18,1.29,1.29,0,0,1,.09-.16.81.81,0,0,1,.12-.14.53.53,0,0,1,.14-.12.56.56,0,0,1,.17-.09.61.61,0,0,1,.18-.05.77.77,0,0,1,.37,0,.61.61,0,0,1,.18.05.51.51,0,0,1,.16.09.79.79,0,0,1,.15.12.76.76,0,0,1,.11.14.65.65,0,0,1,.09.16,1.27,1.27,0,0,1,.06.18,1.37,1.37,0,0,1,0,.19,1.1,1.1,0,0,1,0,.18,1.39,1.39,0,0,1-.06.19.65.65,0,0,1-.09.16.76.76,0,0,1-.11.14.79.79,0,0,1-.15.12.83.83,0,0,1-.16.09l-.18.05A.62.62,0,0,1,291.6,490.18Z" transform="translate(-245.02 -446.56)"/><path class="cls-1" d="M289.91,505.36a.94.94,0,0,1-.85-1.05h0a.94.94,0,0,1,1.05-.84h0a1,1,0,0,1,.85,1h0a1,1,0,0,1-.95.86h-.1Zm.31-3a1,1,0,0,1-.84-1.05h0a1,1,0,0,1,1-.85h0a1,1,0,0,1,.85,1.05h0a.94.94,0,0,1-.94.85h-.11Zm.33-3a1,1,0,0,1-.85-1.05h0a1,1,0,0,1,1.05-.85h0a1,1,0,0,1,.84,1.05h0a.94.94,0,0,1-.94.85h-.1Zm.31-3a1,1,0,0,1-.85-1.05h0a1,1,0,0,1,1.05-.85h0a1,1,0,0,1,.85,1h0a1,1,0,0,1-1,.86h-.1Zm.32-3a.94.94,0,0,1-.84-1h0a.94.94,0,0,1,1-.85h0a.94.94,0,0,1,.85,1.05h0a1,1,0,0,1-.94.85h-.11Z" transform="translate(-245.02 -446.56)"/><path class="cls-1" d="M289.69,508.41a1,1,0,0,1-1-1,1,1,0,0,1,.28-.67,1,1,0,0,1,1.35,0,.81.81,0,0,1,.12.14l.09.17a1.21,1.21,0,0,1,.05.18,1.1,1.1,0,0,1,0,.18,1,1,0,0,1-.28.68A1,1,0,0,1,289.69,508.41Z" transform="translate(-245.02 -446.56)"/><path class="cls-2" d="M301.48,517.2a1,1,0,0,1-.21-1.33h0a1,1,0,0,1,1.33-.21h0a1,1,0,0,1,.21,1.33h0a.93.93,0,0,1-.77.39h0A1,1,0,0,1,301.48,517.2ZM299,515.41a1,1,0,0,1-.21-1.34h0a1,1,0,0,1,1.33-.21h0a1,1,0,0,1,.21,1.33h0a.94.94,0,0,1-.77.4h0A1,1,0,0,1,299,515.41Zm-2.47-1.8a1,1,0,0,1-.21-1.33h0a1,1,0,0,1,1.33-.21h0a1,1,0,0,1,.21,1.33h0a1,1,0,0,1-.77.39h0A1,1,0,0,1,296.54,513.61Zm-2.47-1.79a1,1,0,0,1-.21-1.34h0a1,1,0,0,1,1.33-.21h0a1,1,0,0,1,.21,1.33h0a1,1,0,0,1-.77.4h0A1,1,0,0,1,294.07,511.82ZM291.6,510a1,1,0,0,1-.21-1.33h0a1,1,0,0,1,1.33-.21h0a1,1,0,0,1,.21,1.33h0a1,1,0,0,1-.77.39h0A1,1,0,0,1,291.6,510Z" transform="translate(-245.02 -446.56)"/><path class="cls-1" d="M304.51,519.18l-.19,0a.49.49,0,0,1-.17-.06L304,519l-.14-.12a.88.88,0,0,1-.12-.15l-.09-.16a1.21,1.21,0,0,1-.05-.18.58.58,0,0,1,0-.19,1,1,0,0,1,.28-.67l.14-.12.17-.09.17-.05a.94.94,0,0,1,1.14.93,1.15,1.15,0,0,1,0,.19,1.27,1.27,0,0,1-.06.18.51.51,0,0,1-.09.16.83.83,0,0,1-.11.15A1,1,0,0,1,304.51,519.18Z" transform="translate(-245.02 -446.56)"/><path class="cls-1" d="M306.43,517.37a1,1,0,0,1,.48-1.26h0a1,1,0,0,1,1.26.48h0a1,1,0,0,1-.48,1.26h0a.91.91,0,0,1-.39.08h0A1,1,0,0,1,306.43,517.37Zm2.79-1.24a1,1,0,0,1,.48-1.26h0a1,1,0,0,1,1.26.48h0a1,1,0,0,1-.48,1.26h0a.91.91,0,0,1-.39.08h0A1,1,0,0,1,309.22,516.13Zm2.79-1.25a.94.94,0,0,1,.49-1.25h0a.94.94,0,0,1,1.25.48h0a1,1,0,0,1-.48,1.26h0a1.09,1.09,0,0,1-.39.08h0A1,1,0,0,1,312,514.88Zm2.79-1.24a1,1,0,0,1,.49-1.26h0a1,1,0,0,1,1.25.49h0a1,1,0,0,1-.48,1.26h0a1.09,1.09,0,0,1-.39.08h0A1,1,0,0,1,314.8,513.64Zm2.79-1.24a1,1,0,0,1,.48-1.26h0a1,1,0,0,1,1.26.48h0a1,1,0,0,1-.48,1.26h0a.92.92,0,0,1-.39.09h0A1,1,0,0,1,317.59,512.4Z" transform="translate(-245.02 -446.56)"/><path class="cls-1" d="M321.25,511.72a.55.55,0,0,1-.18,0,.61.61,0,0,1-.18-.05.7.7,0,0,1-.17-.09.53.53,0,0,1-.14-.12.93.93,0,0,1-.28-.67.55.55,0,0,1,0-.18,1.33,1.33,0,0,1,.05-.19l.09-.16a.81.81,0,0,1,.12-.14.53.53,0,0,1,.14-.12l.17-.09.18-.05a.77.77,0,0,1,.37,0l.18.05a1.29,1.29,0,0,1,.16.09.79.79,0,0,1,.15.12l.12.14.08.16a1.39,1.39,0,0,1,.06.19,1.09,1.09,0,0,1,0,.18.71.71,0,0,1-.07.37,1.19,1.19,0,0,1-.08.16l-.12.14A1,1,0,0,1,321.25,511.72Z" transform="translate(-245.02 -446.56)"/><path class="cls-2" d="M321.47,508.68a1,1,0,0,1-.85-1.05h0a1,1,0,0,1,1.05-.84h0a1,1,0,0,1,.85,1h0a1,1,0,0,1-.95.86h-.1Zm.32-3a1,1,0,0,1-.85-1h0a1,1,0,0,1,1.05-.85h0a1,1,0,0,1,.85,1h0a1,1,0,0,1-.95.86h-.1Zm.32-3a1,1,0,0,1-.85-1.05h0a1,1,0,0,1,1.05-.85h0a1,1,0,0,1,.85,1.05h0a1,1,0,0,1-1,.85h-.1Zm.32-3a1,1,0,0,1-.85-1.05h0a1,1,0,0,1,1.05-.85h0a1,1,0,0,1,.85,1.05h0a1,1,0,0,1-1,.85h-.1Zm.32-3a1,1,0,0,1-.85-1h0a1,1,0,0,1,1.05-.85h0a1,1,0,0,1,.85,1h0a1,1,0,0,1-.95.86h-.1Z" transform="translate(-245.02 -446.56)"/><path class="cls-1" d="M323.17,493.5l-.19,0-.18-.05-.16-.09a1.58,1.58,0,0,1-.15-.12.76.76,0,0,1-.11-.14.7.7,0,0,1-.09-.17l-.06-.18a.87.87,0,0,1,0-.37l.06-.18a.51.51,0,0,1,.09-.16l.11-.15.15-.11a.51.51,0,0,1,.16-.09,1.27,1.27,0,0,1,.18-.06,1.15,1.15,0,0,1,.37,0,.76.76,0,0,1,.18.06.7.7,0,0,1,.17.09l.14.11a.79.79,0,0,1,.12.15.83.83,0,0,1,.09.16,1.21,1.21,0,0,1,.05.18.87.87,0,0,1,0,.37,1.21,1.21,0,0,1-.05.18,1.4,1.4,0,0,1-.09.17.53.53,0,0,1-.12.14.81.81,0,0,1-.14.12l-.17.09-.18.05Z" transform="translate(-245.02 -446.56)"/><path class="cls-1" d="M320.14,491.52a1,1,0,0,1-.21-1.33h0a1,1,0,0,1,1.33-.21h0a1,1,0,0,1,.21,1.33h0a1,1,0,0,1-.77.39h0A.94.94,0,0,1,320.14,491.52Zm-2.48-1.79a1,1,0,0,1-.2-1.33h0a1,1,0,0,1,1.33-.22h0a1,1,0,0,1,.21,1.34h0a1,1,0,0,1-.78.39h0A1,1,0,0,1,317.66,489.73Zm-2.46-1.8a1,1,0,0,1-.22-1.33h0a1,1,0,0,1,1.33-.21h0a1,1,0,0,1,.22,1.33h0a1,1,0,0,1-.77.39h0A.94.94,0,0,1,315.2,487.93Zm-2.48-1.79a1,1,0,0,1-.21-1.34h0a1,1,0,0,1,1.34-.21h0a1,1,0,0,1,.21,1.34h0a1,1,0,0,1-.78.39h0A1,1,0,0,1,312.72,486.14Zm-2.47-1.8A1,1,0,0,1,310,483h0a1,1,0,0,1,1.33-.21h0a.94.94,0,0,1,.21,1.33h0a.92.92,0,0,1-.77.39h0A1,1,0,0,1,310.25,484.34Z" transform="translate(-245.02 -446.56)"/><path class="cls-1" d="M308.34,482.73l-.18,0-.18,0-.17-.09-.14-.12a.61.61,0,0,1-.12-.15l-.09-.16a1.21,1.21,0,0,1,0-.18.87.87,0,0,1,0-.37,1.21,1.21,0,0,1,0-.18l.09-.16a.88.88,0,0,1,.12-.15,1,1,0,0,1,.86-.26l.18.06.16.08.15.12a.83.83,0,0,1,.11.15.51.51,0,0,1,.09.16,1.27,1.27,0,0,1,.06.18,1.11,1.11,0,0,1,0,.19,1,1,0,0,1-.28.67l-.15.12-.16.09-.18,0Z" transform="translate(-245.02 -446.56)"/><path class="cls-2" d="M293.52,488.38a1,1,0,0,1,.49-1.26h0a.94.94,0,0,1,1.25.48h0a1,1,0,0,1-.48,1.26h0a1.09,1.09,0,0,1-.39.08h0A1,1,0,0,1,293.52,488.38Zm2.79-1.25a1,1,0,0,1,.48-1.26h0a1,1,0,0,1,1.26.49h0a1,1,0,0,1-.48,1.26h0a1.09,1.09,0,0,1-.39.08h0A1,1,0,0,1,296.31,487.13Zm2.79-1.24a1,1,0,0,1,.48-1.26h0a1,1,0,0,1,1.26.49h0a.94.94,0,0,1-.48,1.25h0a.89.89,0,0,1-.39.09h0A1,1,0,0,1,299.1,485.89Zm2.79-1.24a1,1,0,0,1,.48-1.26h0a1,1,0,0,1,1.26.48h0a1,1,0,0,1-.48,1.26h0a.91.91,0,0,1-.39.08h0A1,1,0,0,1,301.89,484.65Zm2.79-1.24a1,1,0,0,1,.49-1.26h0a.94.94,0,0,1,1.25.48h0a1,1,0,0,1-.48,1.26h0a1.09,1.09,0,0,1-.39.08h0A1,1,0,0,1,304.68,483.41Z" transform="translate(-245.02 -446.56)"/><path class="cls-1" d="M298.58,522.68a1.1,1.1,0,0,1-.93-.49,1.24,1.24,0,0,1-.1-.2.66.66,0,0,1-.06-.2.82.82,0,0,1,0-.22,1.12,1.12,0,0,1,.32-.79,1.15,1.15,0,0,1,1-.3,1.05,1.05,0,0,1,.21.06l.19.1.17.14a1.13,1.13,0,0,1,.33.79,1.64,1.64,0,0,1,0,.22,1.18,1.18,0,0,1-.07.2,1.24,1.24,0,0,1-.1.2,1.15,1.15,0,0,1-.14.17.7.7,0,0,1-.17.13,1.18,1.18,0,0,1-.19.11,1.05,1.05,0,0,1-.21.06Z" transform="translate(-245.02 -446.56)"/><path class="cls-1" d="M300.71,521.19a1.12,1.12,0,0,1,.9-1.29h0a1.12,1.12,0,0,1,1.29.91h0a1.12,1.12,0,0,1-.9,1.29h-.2A1.11,1.11,0,0,1,300.71,521.19Zm3.23-.56a1.11,1.11,0,0,1,.9-1.29h0a1.11,1.11,0,0,1,1.29.9h0a1.1,1.1,0,0,1-.9,1.28h0a.68.68,0,0,1-.2,0h0A1.12,1.12,0,0,1,303.94,520.63Zm3.23-.58a1.1,1.1,0,0,1,.9-1.28h0a1.11,1.11,0,0,1,1.29.9h0a1.12,1.12,0,0,1-.9,1.29h-.2A1.1,1.1,0,0,1,307.17,520.05Zm3.23-.57a1.1,1.1,0,0,1,.9-1.28h0a1.11,1.11,0,0,1,1.29.9h0a1.12,1.12,0,0,1-.9,1.29h-.2A1.1,1.1,0,0,1,310.4,519.48Zm3.23-.56a1.11,1.11,0,0,1,.9-1.29h0a1.11,1.11,0,0,1,1.29.9h0a1.11,1.11,0,0,1-.9,1.29h-.2A1.1,1.1,0,0,1,313.63,518.92Zm3.23-.57a1.11,1.11,0,0,1,.9-1.29h0a1.12,1.12,0,0,1,1.29.9h0a1.12,1.12,0,0,1-.91,1.29h0l-.19,0h0A1.11,1.11,0,0,1,316.86,518.35Z" transform="translate(-245.02 -446.56)"/><path class="cls-1" d="M321.18,518.7a.76.76,0,0,1-.21,0,.65.65,0,0,1-.21-.06l-.19-.1a.79.79,0,0,1-.17-.14,1.11,1.11,0,0,1-.33-.79,1.49,1.49,0,0,1,0-.21.86.86,0,0,1,.07-.21.69.69,0,0,1,.1-.19.75.75,0,0,1,.14-.17.79.79,0,0,1,.17-.14.69.69,0,0,1,.19-.1l.21-.07a1.13,1.13,0,0,1,1,.31c0,.05.09.11.14.17a1.14,1.14,0,0,1,.1.19.83.83,0,0,1,.06.21.75.75,0,0,1,0,.21,1.1,1.1,0,0,1-.32.79l-.17.14-.19.1-.21.06A.83.83,0,0,1,321.18,518.7Z" transform="translate(-245.02 -446.56)"/><path class="cls-2" d="M321.92,515.55a1.12,1.12,0,0,1-.66-1.43h0a1.1,1.1,0,0,1,1.42-.66h0a1.11,1.11,0,0,1,.67,1.42h0a1.11,1.11,0,0,1-1.05.74h0A1.33,1.33,0,0,1,321.92,515.55Zm1.12-3.08a1.12,1.12,0,0,1-.66-1.43h0a1.12,1.12,0,0,1,1.43-.66h0a1.11,1.11,0,0,1,.66,1.42h0a1.12,1.12,0,0,1-1.05.73h0A1.31,1.31,0,0,1,323,512.47Zm1.13-3.08a1.12,1.12,0,0,1-.67-1.43h0a1.12,1.12,0,0,1,1.43-.67h0a1.12,1.12,0,0,1,.66,1.43h0a1.11,1.11,0,0,1-1,.73h0A1.21,1.21,0,0,1,324.17,509.39Zm1.12-3.09a1.11,1.11,0,0,1-.67-1.42h0a1.12,1.12,0,0,1,1.43-.67h0a1.12,1.12,0,0,1,.66,1.43h0a1.11,1.11,0,0,1-1,.73h0A1,1,0,0,1,325.29,506.3Zm1.12-3.08a1.11,1.11,0,0,1-.67-1.42h0a1.12,1.12,0,0,1,1.43-.67h0a1.11,1.11,0,0,1,.66,1.43h0a1.11,1.11,0,0,1-1,.73h0A1,1,0,0,1,326.41,503.22Zm1.12-3.08a1.1,1.1,0,0,1-.66-1.42h0a1.11,1.11,0,0,1,1.42-.67h0a1.12,1.12,0,0,1,.67,1.43h0a1.12,1.12,0,0,1-1,.73h0A1,1,0,0,1,327.53,500.14Z" transform="translate(-245.02 -446.56)"/><path class="cls-1" d="M329,497.12a1.08,1.08,0,0,1-.78-.32,1.11,1.11,0,0,1-.33-.79,1.09,1.09,0,0,1,.33-.78,1.12,1.12,0,0,1,1-.31l.21.07.19.1.17.14a1.08,1.08,0,0,1,.32.78,1.1,1.1,0,0,1-.32.79l-.17.14-.19.1-.21.06A.78.78,0,0,1,329,497.12Z" transform="translate(-245.02 -446.56)"/><path class="cls-1" d="M326.07,494.22a1.12,1.12,0,0,1,.14-1.57h0a1.1,1.1,0,0,1,1.57.14h0a1.11,1.11,0,0,1-.14,1.56h0a1.08,1.08,0,0,1-.71.26h0A1.12,1.12,0,0,1,326.07,494.22ZM324,491.7a1.11,1.11,0,0,1,.14-1.56h0a1.11,1.11,0,0,1,1.57.13h0a1.12,1.12,0,0,1-.14,1.57h0a1.08,1.08,0,0,1-.71.26h0A1.1,1.1,0,0,1,324,491.7Zm-2.1-2.51a1.09,1.09,0,0,1,.14-1.56h0a1.1,1.1,0,0,1,1.56.13h0a1.11,1.11,0,0,1-.14,1.57h0a1.11,1.11,0,0,1-.71.26h0A1.08,1.08,0,0,1,321.86,489.19Zm-2.11-2.51a1.1,1.1,0,0,1,.14-1.56h0a1.1,1.1,0,0,1,1.56.13h0a1.11,1.11,0,0,1-.13,1.57h0a1.16,1.16,0,0,1-.72.26h0A1.13,1.13,0,0,1,319.75,486.68Zm-2.11-2.51a1.12,1.12,0,0,1,.14-1.57h0a1.12,1.12,0,0,1,1.57.14h0a1.12,1.12,0,0,1-.14,1.57h0a1.16,1.16,0,0,1-.72.26h0A1.13,1.13,0,0,1,317.64,484.17Zm-2.11-2.51a1.12,1.12,0,0,1,.14-1.57h0a1.12,1.12,0,0,1,1.57.14h0a1.11,1.11,0,0,1-.14,1.56h0a1.08,1.08,0,0,1-.71.26h0A1.12,1.12,0,0,1,315.53,481.66Z" transform="translate(-245.02 -446.56)"/><path class="cls-1" d="M314.28,479.54a1.16,1.16,0,0,1-.79-.32,1.12,1.12,0,0,1-.32-.79.82.82,0,0,1,0-.22.66.66,0,0,1,.06-.2,1.24,1.24,0,0,1,.1-.2,1.11,1.11,0,0,1,1.15-.47.92.92,0,0,1,.39.17.75.75,0,0,1,.18.13,1.09,1.09,0,0,1,.13.17.75.75,0,0,1,.1.2,1.18,1.18,0,0,1,.07.2,1.64,1.64,0,0,1,0,.22,1.16,1.16,0,0,1-.32.79l-.18.14-.19.1a1.17,1.17,0,0,1-.2.06Z" transform="translate(-245.02 -446.56)"/><path class="cls-2" d="M293.81,482a1.11,1.11,0,0,1,.9-1.29h0a1.13,1.13,0,0,1,1.29.9h0a1.11,1.11,0,0,1-.91,1.29h0l-.19,0h0A1.1,1.1,0,0,1,293.81,482Zm3.23-.57a1.11,1.11,0,0,1,.9-1.29h0a1.13,1.13,0,0,1,1.29.9h0a1.11,1.11,0,0,1-.9,1.29h0l-.2,0h0A1.1,1.1,0,0,1,297,481.47Zm3.23-.57a1.11,1.11,0,0,1,.9-1.29h0a1.12,1.12,0,0,1,1.29.91h0a1.11,1.11,0,0,1-.91,1.28h0l-.19,0h0A1.1,1.1,0,0,1,300.27,480.9Zm3.23-.57a1.11,1.11,0,0,1,.9-1.29h0a1.11,1.11,0,0,1,1.28.91h0a1.1,1.1,0,0,1-.9,1.28h0a.62.62,0,0,1-.19,0h0A1.1,1.1,0,0,1,303.5,480.33Zm3.23-.57a1.11,1.11,0,0,1,.9-1.29h0a1.13,1.13,0,0,1,1.29.9h0a1.11,1.11,0,0,1-.91,1.29h0l-.19,0h0A1.1,1.1,0,0,1,306.73,479.76Zm3.22-.57a1.12,1.12,0,0,1,.91-1.29h0a1.11,1.11,0,0,1,1.28.91h0a1.11,1.11,0,0,1-.9,1.29h-.19A1.12,1.12,0,0,1,310,479.19Z" transform="translate(-245.02 -446.56)"/><path class="cls-1" d="M291.67,483.53a1.13,1.13,0,0,1-1.11-1.12,1.49,1.49,0,0,1,0-.21,1.72,1.72,0,0,1,.07-.21.69.69,0,0,1,.1-.19.75.75,0,0,1,.14-.17,1.07,1.07,0,0,1,.16-.14l.2-.1a.66.66,0,0,1,.2-.06,1.09,1.09,0,0,1,.44,0l.21.06.19.1.17.14a1.07,1.07,0,0,1,.24.36.83.83,0,0,1,.06.21.76.76,0,0,1,0,.21,1.14,1.14,0,0,1-.33.79l-.17.14a.69.69,0,0,1-.19.1l-.21.06A.78.78,0,0,1,291.67,483.53Z" transform="translate(-245.02 -446.56)"/><path class="cls-1" d="M284.56,502a1.11,1.11,0,0,1-.66-1.43h0a1.11,1.11,0,0,1,1.42-.66h0a1.11,1.11,0,0,1,.67,1.42h0a1.13,1.13,0,0,1-1.05.74h0A1.06,1.06,0,0,1,284.56,502Zm1.12-3.08a1.12,1.12,0,0,1-.66-1.43h0a1.1,1.1,0,0,1,1.42-.66h0a1.11,1.11,0,0,1,.67,1.42h0a1.1,1.1,0,0,1-1,.74h0A1.34,1.34,0,0,1,285.68,498.87Zm1.13-3.08a1.12,1.12,0,0,1-.67-1.43h0a1.12,1.12,0,0,1,1.43-.66h0a1.11,1.11,0,0,1,.66,1.42h0a1.11,1.11,0,0,1-1,.73h0A1.21,1.21,0,0,1,286.81,495.79Zm1.12-3.08a1.12,1.12,0,0,1-.67-1.43h0a1.12,1.12,0,0,1,1.43-.67h0a1.11,1.11,0,0,1,.66,1.43h0a1.11,1.11,0,0,1-1,.73h0A1.21,1.21,0,0,1,287.93,492.71Zm1.12-3.09a1.1,1.1,0,0,1-.66-1.42h0a1.1,1.1,0,0,1,1.42-.67h0a1.12,1.12,0,0,1,.67,1.43h0a1.13,1.13,0,0,1-1.05.73h0A1,1,0,0,1,289.05,489.62Zm1.12-3.08a1.11,1.11,0,0,1-.66-1.42h0a1.11,1.11,0,0,1,1.42-.67h0a1.12,1.12,0,0,1,.67,1.43h0a1.12,1.12,0,0,1-1.05.73h0A1,1,0,0,1,290.17,486.54Z" transform="translate(-245.02 -446.56)"/><path class="cls-1" d="M283.82,505.1a1.11,1.11,0,0,1-1.11-1.11,1.5,1.5,0,0,1,0-.22,1.72,1.72,0,0,1,.07-.21.69.69,0,0,1,.1-.19,1.09,1.09,0,0,1,.13-.17,1.14,1.14,0,0,1,1-.31l.21.07.19.1.17.14a1.07,1.07,0,0,1,.24.36.83.83,0,0,1,.06.21.78.78,0,0,1,0,.22,1.12,1.12,0,0,1-.32.78l-.17.14-.19.1-.21.07Z" transform="translate(-245.02 -446.56)"/><path class="cls-2" d="M295.62,519.77a1.09,1.09,0,0,1,.14-1.56h0a1.1,1.1,0,0,1,1.56.13h0a1.12,1.12,0,0,1-.13,1.57h0a1.1,1.1,0,0,1-.72.26h0A1.11,1.11,0,0,1,295.62,519.77Zm-2.11-2.51a1.12,1.12,0,0,1,.14-1.57h0a1.11,1.11,0,0,1,1.56.14h0a1.11,1.11,0,0,1-.13,1.57h0a1.16,1.16,0,0,1-.72.26h0A1.11,1.11,0,0,1,293.51,517.26Zm-2.11-2.51a1.12,1.12,0,0,1,.14-1.57h0a1.12,1.12,0,0,1,1.57.14h0a1.11,1.11,0,0,1-.14,1.56h0a1.08,1.08,0,0,1-.72.26h0A1.12,1.12,0,0,1,291.4,514.75Zm-2.11-2.51a1.12,1.12,0,0,1,.14-1.57h0a1.11,1.11,0,0,1,1.57.14h0a1.11,1.11,0,0,1-.14,1.56h0a1.08,1.08,0,0,1-.71.26h0A1.12,1.12,0,0,1,289.29,512.24Zm-2.1-2.52a1.1,1.1,0,0,1,.13-1.56h0a1.11,1.11,0,0,1,1.57.14h0a1.11,1.11,0,0,1-.14,1.56h0a1.08,1.08,0,0,1-.71.26h0A1.08,1.08,0,0,1,287.19,509.72Zm-2.11-2.51a1.1,1.1,0,0,1,.13-1.56h0a1.11,1.11,0,0,1,1.57.13h0a1.12,1.12,0,0,1-.14,1.57h0a1.13,1.13,0,0,1-.71.26h0A1.08,1.08,0,0,1,285.08,507.21Z" transform="translate(-245.02 -446.56)"/><path class="cls-1" d="M334.84,503.26l-.24,0a.84.84,0,0,1-.24-.07.94.94,0,0,1-.22-.12,1,1,0,0,1-.2-.16,1.6,1.6,0,0,1-.16-.19,1.51,1.51,0,0,1-.11-.22.84.84,0,0,1-.07-.24,1,1,0,0,1,0-.24,1,1,0,0,1,0-.25,1.09,1.09,0,0,1,.07-.24,1.51,1.51,0,0,1,.11-.22c.05-.07.11-.13.16-.19a1.45,1.45,0,0,1,.42-.28l.24-.07a1.26,1.26,0,0,1,1.14.35,1.46,1.46,0,0,1,.16.19,1.55,1.55,0,0,1,.12.22,2.17,2.17,0,0,1,.07.24,1.51,1.51,0,0,1,0,.49,1.37,1.37,0,0,1-.07.24,1.55,1.55,0,0,1-.12.22,1,1,0,0,1-.16.19A1.27,1.27,0,0,1,334.84,503.26Z" transform="translate(-245.02 -446.56)"/><path class="cls-1" d="M331.92,498.89a1.27,1.27,0,0,1,.58-1.7h0a1.27,1.27,0,0,1,1.7.58h0a1.27,1.27,0,0,1-.58,1.7h0a1.24,1.24,0,0,1-.56.13h0A1.27,1.27,0,0,1,331.92,498.89Zm-1.79-3.66a1.28,1.28,0,0,1,.59-1.7h0a1.26,1.26,0,0,1,1.7.59h0a1.28,1.28,0,0,1-.59,1.7h0a1.37,1.37,0,0,1-.55.12h0A1.27,1.27,0,0,1,330.13,495.23Zm-1.78-3.66a1.27,1.27,0,0,1,.58-1.7h0a1.27,1.27,0,0,1,1.7.59h0a1.27,1.27,0,0,1-.58,1.7h0a1.39,1.39,0,0,1-.56.13h0A1.28,1.28,0,0,1,328.35,491.57Zm-1.78-3.66a1.27,1.27,0,0,1,.58-1.7h0a1.28,1.28,0,0,1,1.7.59h0a1.26,1.26,0,0,1-.59,1.7h0a1.2,1.2,0,0,1-.55.13h0A1.26,1.26,0,0,1,326.57,487.91Zm-1.79-3.65a1.27,1.27,0,0,1,.59-1.7h0a1.27,1.27,0,0,1,1.7.58h0a1.28,1.28,0,0,1-.59,1.7h0a1.23,1.23,0,0,1-.55.13h0A1.27,1.27,0,0,1,324.78,484.26ZM323,480.6a1.27,1.27,0,0,1,.58-1.7h0a1.26,1.26,0,0,1,1.7.59h0a1.27,1.27,0,0,1-.58,1.7h0a1.38,1.38,0,0,1-.56.12h0A1.27,1.27,0,0,1,323,480.6Z" transform="translate(-245.02 -446.56)"/><path class="cls-1" d="M322.36,477.66a1.28,1.28,0,0,1-1.27-1.28,1.24,1.24,0,0,1,.37-.89,1.27,1.27,0,1,1,.9,2.17Z" transform="translate(-245.02 -446.56)"/><path class="cls-2" d="M318.21,477.37A1.27,1.27,0,0,1,317,476h0a1.27,1.27,0,0,1,1.36-1.18h0a1.27,1.27,0,0,1,1.17,1.36h0a1.26,1.26,0,0,1-1.26,1.18h-.09Zm-4.06-.29a1.26,1.26,0,0,1-1.18-1.35h0a1.27,1.27,0,0,1,1.36-1.18h0a1.27,1.27,0,0,1,1.17,1.36h0a1.26,1.26,0,0,1-1.26,1.18h-.09Zm-4.06-.28a1.27,1.27,0,0,1-1.18-1.36h0a1.27,1.27,0,0,1,1.36-1.17h0a1.27,1.27,0,0,1,1.18,1.35h0a1.28,1.28,0,0,1-1.27,1.18h-.09Zm-4.06-.28a1.27,1.27,0,0,1-1.18-1.36h0a1.27,1.27,0,0,1,1.36-1.18h0a1.28,1.28,0,0,1,1.18,1.36h0a1.28,1.28,0,0,1-1.27,1.18H306Zm-4.06-.29a1.27,1.27,0,0,1-1.18-1.35h0a1.27,1.27,0,0,1,1.36-1.18h0a1.27,1.27,0,0,1,1.18,1.35h0a1.28,1.28,0,0,1-1.27,1.19H302Zm-4.06-.28a1.27,1.27,0,0,1-1.18-1.36h0a1.27,1.27,0,0,1,1.36-1.18h0a1.27,1.27,0,0,1,1.18,1.36h0A1.28,1.28,0,0,1,298,476h-.09Z" transform="translate(-245.02 -446.56)"/><path class="cls-1" d="M293.94,475.67a1.07,1.07,0,0,1-.25,0,.88.88,0,0,1-.23-.07.78.78,0,0,1-.22-.12,1,1,0,0,1-.2-.15,1.56,1.56,0,0,1-.16-.2,1.51,1.51,0,0,1-.11-.22.62.62,0,0,1-.07-.23,1.13,1.13,0,0,1,0-.25,1,1,0,0,1,0-.25.73.73,0,0,1,.07-.24,1.51,1.51,0,0,1,.11-.22,1.46,1.46,0,0,1,.16-.19,1.56,1.56,0,0,1,.2-.16,1.14,1.14,0,0,1,.22-.12l.23-.07a1.4,1.4,0,0,1,.5,0l.24.07a2.39,2.39,0,0,1,.22.12l.19.16a1.46,1.46,0,0,1,.16.19,1.51,1.51,0,0,1,.11.22,1.13,1.13,0,0,1,.08.24,2,2,0,0,1,0,.25,2.29,2.29,0,0,1,0,.25.9.9,0,0,1-.08.23,1.51,1.51,0,0,1-.11.22,1.56,1.56,0,0,1-.16.2A1.31,1.31,0,0,1,293.94,475.67Z" transform="translate(-245.02 -446.56)"/><path class="cls-1" d="M279.58,495.69a1.26,1.26,0,0,1-.35-1.76h0a1.27,1.27,0,0,1,1.77-.34h0a1.27,1.27,0,0,1,.34,1.76h0a1.29,1.29,0,0,1-1,.56h0A1.22,1.22,0,0,1,279.58,495.69Zm2.27-3.37a1.28,1.28,0,0,1-.34-1.77h0a1.27,1.27,0,0,1,1.76-.34h0a1.27,1.27,0,0,1,.35,1.76h0a1.28,1.28,0,0,1-1.06.57h0A1.26,1.26,0,0,1,281.85,492.32Zm2.28-3.37a1.28,1.28,0,0,1-.35-1.77h0a1.28,1.28,0,0,1,1.77-.34h0a1.27,1.27,0,0,1,.34,1.76h0a1.24,1.24,0,0,1-1.05.56h0A1.28,1.28,0,0,1,284.13,489Zm2.27-3.38a1.27,1.27,0,0,1-.34-1.76h0a1.28,1.28,0,0,1,1.77-.35h0a1.28,1.28,0,0,1,.34,1.77h0a1.29,1.29,0,0,1-1.06.56h0A1.26,1.26,0,0,1,286.4,485.57Zm2.28-3.37a1.27,1.27,0,0,1-.35-1.76h0a1.28,1.28,0,0,1,1.77-.35h0a1.28,1.28,0,0,1,.34,1.77h0a1.25,1.25,0,0,1-1.05.55h0A1.23,1.23,0,0,1,288.68,482.2Zm2.28-3.38a1.26,1.26,0,0,1-.35-1.76h0a1.27,1.27,0,0,1,1.77-.34h0a1.27,1.27,0,0,1,.34,1.76h0a1.27,1.27,0,0,1-1.06.56h0A1.21,1.21,0,0,1,291,478.82Z" transform="translate(-245.02 -446.56)"/><path class="cls-1" d="M278,499.29a1.29,1.29,0,0,1-.9-.38c-.05-.06-.11-.12-.16-.19a1.51,1.51,0,0,1-.11-.22,1.09,1.09,0,0,1-.07-.24,1,1,0,0,1,0-.25,1.28,1.28,0,0,1,.37-.89.74.74,0,0,1,.2-.16.94.94,0,0,1,.22-.12.88.88,0,0,1,.23-.07,1.06,1.06,0,0,1,.5,0,1.09,1.09,0,0,1,.24.07,1.19,1.19,0,0,1,.22.12.7.7,0,0,1,.19.16,1.24,1.24,0,0,1,.37.89,2,2,0,0,1,0,.25,1.13,1.13,0,0,1-.08.24,1.51,1.51,0,0,1-.11.22,1.46,1.46,0,0,1-.16.19A1.27,1.27,0,0,1,278,499.29Z" transform="translate(-245.02 -446.56)"/><path class="cls-2" d="M287.57,520.51a1.28,1.28,0,0,1,.59-1.7h0a1.28,1.28,0,0,1,1.7.59h0a1.28,1.28,0,0,1-.59,1.7h0a1.23,1.23,0,0,1-.55.13h0A1.27,1.27,0,0,1,287.57,520.51Zm-1.78-3.65a1.27,1.27,0,0,1,.58-1.7h0a1.27,1.27,0,0,1,1.7.58h0a1.27,1.27,0,0,1-.58,1.7h0a1.24,1.24,0,0,1-.56.13h0A1.27,1.27,0,0,1,285.79,516.86ZM284,513.2a1.28,1.28,0,0,1,.59-1.7h0a1.27,1.27,0,0,1,1.7.59h0a1.27,1.27,0,0,1-.59,1.7h0a1.3,1.3,0,0,1-.55.12h0A1.29,1.29,0,0,1,284,513.2Zm-1.78-3.66a1.26,1.26,0,0,1,.59-1.7h0a1.28,1.28,0,0,1,1.7.59h0a1.28,1.28,0,0,1-.59,1.7h0a1.38,1.38,0,0,1-.55.13h0A1.29,1.29,0,0,1,282.22,509.54Zm-1.78-3.66a1.27,1.27,0,0,1,.58-1.7h0a1.28,1.28,0,0,1,1.7.59h0a1.27,1.27,0,0,1-.58,1.7h0a1.24,1.24,0,0,1-.56.13h0A1.28,1.28,0,0,1,280.44,505.88Zm-1.79-3.65a1.28,1.28,0,0,1,.59-1.7h0a1.27,1.27,0,0,1,1.7.58h0a1.27,1.27,0,0,1-.59,1.7h0a1.23,1.23,0,0,1-.55.13h0A1.28,1.28,0,0,1,278.65,502.23Z" transform="translate(-245.02 -446.56)"/><path class="cls-1" d="M290.5,524.89a1.27,1.27,0,0,1-.9-.38,1.46,1.46,0,0,1-.16-.19,1.51,1.51,0,0,1-.11-.22,1,1,0,0,1-.08-.24,1.51,1.51,0,0,1,0-.49,1,1,0,0,1,.08-.24,1.51,1.51,0,0,1,.11-.22,1.46,1.46,0,0,1,.16-.19,1.28,1.28,0,0,1,1.15-.35l.23.07a.78.78,0,0,1,.22.12,1,1,0,0,1,.2.16,1.46,1.46,0,0,1,.16.19,1.51,1.51,0,0,1,.11.22,1.69,1.69,0,0,1,.08.24,1.51,1.51,0,0,1,0,.49,1.69,1.69,0,0,1-.08.24,1.51,1.51,0,0,1-.11.22,1.46,1.46,0,0,1-.16.19,1,1,0,0,1-.2.16.78.78,0,0,1-.22.12l-.23.07A1.07,1.07,0,0,1,290.5,524.89Z" transform="translate(-245.02 -446.56)"/><path class="cls-1" d="M314.77,526.59a1.27,1.27,0,0,1-1.18-1.36h0a1.27,1.27,0,0,1,1.36-1.18h0a1.27,1.27,0,0,1,1.17,1.36h0a1.26,1.26,0,0,1-1.26,1.18h-.09Zm-4.06-.29a1.27,1.27,0,0,1-1.18-1.35h0a1.26,1.26,0,0,1,1.36-1.18h0a1.26,1.26,0,0,1,1.17,1.35h0a1.27,1.27,0,0,1-1.26,1.19h-.09Zm-4.06-.28a1.27,1.27,0,0,1-1.18-1.36h0a1.27,1.27,0,0,1,1.35-1.18h0a1.27,1.27,0,0,1,1.18,1.36h0a1.26,1.26,0,0,1-1.26,1.18h-.09Zm-4.06-.29a1.26,1.26,0,0,1-1.18-1.35h0a1.27,1.27,0,0,1,1.35-1.18h0a1.27,1.27,0,0,1,1.18,1.36h0a1.26,1.26,0,0,1-1.26,1.18h-.09Zm-4.06-.28a1.27,1.27,0,0,1-1.18-1.36h0a1.27,1.27,0,0,1,1.36-1.17h0a1.27,1.27,0,0,1,1.18,1.35h0a1.28,1.28,0,0,1-1.27,1.18h-.09Zm-4.06-.28a1.27,1.27,0,0,1-1.18-1.36h0a1.27,1.27,0,0,1,1.36-1.18h0a1.28,1.28,0,0,1,1.18,1.36h0a1.28,1.28,0,0,1-1.27,1.18h-.09Z" transform="translate(-245.02 -446.56)"/><path class="cls-1" d="M318.92,526.87a1.25,1.25,0,0,1-.9-.37,1.25,1.25,0,0,1-.28-.41,1.09,1.09,0,0,1-.07-.24,1,1,0,0,1,0-.25,1.13,1.13,0,0,1,0-.25.88.88,0,0,1,.07-.23.94.94,0,0,1,.12-.22,1,1,0,0,1,.16-.2,1.27,1.27,0,0,1,1.79,0,1.56,1.56,0,0,1,.16.2.94.94,0,0,1,.12.22,1.55,1.55,0,0,1,.07.23,1.1,1.1,0,0,1,0,.25,1,1,0,0,1,0,.25,2.17,2.17,0,0,1-.07.24.94.94,0,0,1-.12.22,1.46,1.46,0,0,1-.16.19A1.24,1.24,0,0,1,318.92,526.87Z" transform="translate(-245.02 -446.56)"/><path class="cls-2" d="M320.48,523.28a1.27,1.27,0,0,1-.34-1.76h0a1.27,1.27,0,0,1,1.76-.35h0a1.27,1.27,0,0,1,.34,1.77h0a1.26,1.26,0,0,1-1.05.56h0A1.24,1.24,0,0,1,320.48,523.28Zm2.27-3.37a1.28,1.28,0,0,1-.34-1.77h0a1.28,1.28,0,0,1,1.77-.34h0a1.27,1.27,0,0,1,.34,1.76h0a1.28,1.28,0,0,1-1.06.57h0A1.26,1.26,0,0,1,322.75,519.91Zm2.28-3.38a1.27,1.27,0,0,1-.34-1.76h0a1.27,1.27,0,0,1,1.76-.34h0a1.27,1.27,0,0,1,.35,1.76h0a1.27,1.27,0,0,1-1.06.56h0A1.26,1.26,0,0,1,325,516.53Zm2.28-3.37a1.27,1.27,0,0,1-.35-1.76h0a1.27,1.27,0,0,1,1.77-.35h0a1.28,1.28,0,0,1,.34,1.77h0a1.27,1.27,0,0,1-1.05.56h0A1.22,1.22,0,0,1,327.31,513.16Zm2.27-3.37a1.27,1.27,0,0,1-.34-1.77h0a1.27,1.27,0,0,1,1.76-.34h0a1.28,1.28,0,0,1,.35,1.77h0a1.28,1.28,0,0,1-1.06.55h0A1.33,1.33,0,0,1,329.58,509.79Zm2.28-3.38a1.27,1.27,0,0,1-.35-1.76h0a1.27,1.27,0,0,1,1.77-.34h0a1.27,1.27,0,0,1,.34,1.76h0a1.28,1.28,0,0,1-1.06.56h0A1.23,1.23,0,0,1,331.86,506.41Z" transform="translate(-245.02 -446.56)"/><path class="cls-1" d="M299.18,467.33a1.33,1.33,0,0,1-.28,0l-.27-.08a1.83,1.83,0,0,1-.24-.13,2.13,2.13,0,0,1-.22-.18,1.44,1.44,0,0,1-.42-1,1.27,1.27,0,0,1,0-.28,1.38,1.38,0,0,1,.08-.27,1.19,1.19,0,0,1,.13-.25,1.24,1.24,0,0,1,.18-.22,1.28,1.28,0,0,1,.22-.17,1.12,1.12,0,0,1,.24-.13l.27-.09a1.46,1.46,0,0,1,1.29.39l.18.22a2,2,0,0,1,.13.25,2.76,2.76,0,0,1,.08.27,1.27,1.27,0,0,1,0,.28,1.48,1.48,0,0,1-.42,1l-.22.18a1.46,1.46,0,0,1-.25.13l-.26.08Z" transform="translate(-245.02 -446.56)"/><path class="cls-1" d="M275.44,487.27a1.44,1.44,0,0,1,.11-2h0a1.43,1.43,0,0,1,2,.1h0a1.43,1.43,0,0,1-.11,2h0a1.39,1.39,0,0,1-.95.37h0A1.47,1.47,0,0,1,275.44,487.27Zm3.24-2.92a1.43,1.43,0,0,1,.11-2h0a1.43,1.43,0,0,1,2,.11h0a1.41,1.41,0,0,1-.11,2h0a1.39,1.39,0,0,1-.95.37h0A1.47,1.47,0,0,1,278.68,484.35Zm3.24-2.92a1.41,1.41,0,0,1,.11-2h0a1.43,1.43,0,0,1,2,.1h0a1.43,1.43,0,0,1-.11,2h0a1.4,1.4,0,0,1-1,.37h0A1.42,1.42,0,0,1,281.92,481.43Zm3.24-2.91a1.43,1.43,0,0,1,.11-2h0a1.44,1.44,0,0,1,2,.1h0a1.44,1.44,0,0,1-.11,2h0a1.41,1.41,0,0,1-1,.37h0A1.43,1.43,0,0,1,285.16,478.52Zm3.24-2.92a1.43,1.43,0,0,1,.11-2h0a1.42,1.42,0,0,1,2,.11h0a1.43,1.43,0,0,1-.1,2h0a1.45,1.45,0,0,1-1,.36h0A1.43,1.43,0,0,1,288.4,475.6Zm3.24-2.92a1.42,1.42,0,0,1,.1-2h0a1.43,1.43,0,0,1,2,.1h0a1.43,1.43,0,0,1-.1,2h0a1.41,1.41,0,0,1-1,.37h0A1.4,1.4,0,0,1,291.64,472.68Zm3.24-2.91a1.43,1.43,0,0,1,.1-2h0a1.43,1.43,0,0,1,2,.1h0a1.45,1.45,0,0,1-.1,2h0a1.47,1.47,0,0,1-1,.36h0A1.43,1.43,0,0,1,294.88,469.77Z" transform="translate(-245.02 -446.56)"/><path class="cls-1" d="M273.27,490.66a1.43,1.43,0,0,1-1.43-1.43,1.43,1.43,0,0,1,1.43-1.43,1.44,1.44,0,0,1,1,.42,1.41,1.41,0,0,1,.42,1,1.44,1.44,0,0,1-.42,1A1.48,1.48,0,0,1,273.27,490.66Z" transform="translate(-245.02 -446.56)"/><path class="cls-2" d="M278.21,519.36a1.43,1.43,0,0,1,1.1-1.69h0a1.43,1.43,0,0,1,1.7,1.1h0a1.43,1.43,0,0,1-1.1,1.69h0a1,1,0,0,1-.3,0h0A1.44,1.44,0,0,1,278.21,519.36Zm-.9-4.26a1.43,1.43,0,0,1,1.1-1.7h0a1.43,1.43,0,0,1,1.69,1.11h0a1.41,1.41,0,0,1-1.1,1.69h0l-.3,0h0A1.42,1.42,0,0,1,277.31,515.1Zm-.91-4.26a1.44,1.44,0,0,1,1.1-1.7h0a1.44,1.44,0,0,1,1.7,1.1h0a1.44,1.44,0,0,1-1.11,1.7h0a1.43,1.43,0,0,1-.29,0h0A1.43,1.43,0,0,1,276.4,510.84Zm-.9-4.26a1.42,1.42,0,0,1,1.09-1.7h0a1.42,1.42,0,0,1,1.7,1.1h0a1.43,1.43,0,0,1-1.1,1.7h0l-.3,0h0A1.42,1.42,0,0,1,275.5,506.58Zm-.91-4.27a1.43,1.43,0,0,1,1.1-1.69h0a1.43,1.43,0,0,1,1.7,1.1h0a1.43,1.43,0,0,1-1.11,1.69h0l-.3,0h0A1.42,1.42,0,0,1,274.59,502.31Zm-.91-4.26a1.44,1.44,0,0,1,1.1-1.7h0a1.43,1.43,0,0,1,1.7,1.11h0a1.43,1.43,0,0,1-1.1,1.69h0a1.53,1.53,0,0,1-.3,0h0A1.43,1.43,0,0,1,273.68,498.05Zm-.9-4.26a1.42,1.42,0,0,1,1.1-1.7h0a1.43,1.43,0,0,1,1.69,1.1h0a1.43,1.43,0,0,1-1.1,1.7h0a1.53,1.53,0,0,1-.3,0h0A1.42,1.42,0,0,1,272.78,493.79Z" transform="translate(-245.02 -446.56)"/><path class="cls-1" d="M280.52,524.76a1.27,1.27,0,0,1-.28,0,1.38,1.38,0,0,1-.27-.08l-.25-.13a.91.91,0,0,1-.21-.18,1.44,1.44,0,0,1-.42-1,2.64,2.64,0,0,1,0-.28,1.43,1.43,0,0,1,.09-.27,1.49,1.49,0,0,1,.13-.25,1.68,1.68,0,0,1,.18-.21.91.91,0,0,1,.21-.18L280,522a1.38,1.38,0,0,1,.27-.08,1.43,1.43,0,0,1,1.29.39c.07.07.12.14.18.21s.09.17.13.25a2.76,2.76,0,0,1,.08.27,1.33,1.33,0,0,1,0,.28,1.41,1.41,0,0,1-.42,1A1.44,1.44,0,0,1,280.52,524.76Z" transform="translate(-245.02 -446.56)"/><path class="cls-1" d="M309.09,534.12a1.44,1.44,0,0,1-.92-1.81h0a1.42,1.42,0,0,1,1.8-.91h0a1.42,1.42,0,0,1,.92,1.8h0a1.43,1.43,0,0,1-1.36,1h0A1.72,1.72,0,0,1,309.09,534.12Zm-4.15-1.35A1.42,1.42,0,0,1,304,531h0a1.43,1.43,0,0,1,1.8-.92h0a1.43,1.43,0,0,1,.92,1.8h0a1.43,1.43,0,0,1-1.36,1h0A1.41,1.41,0,0,1,304.94,532.77Zm-4.14-1.35a1.43,1.43,0,0,1-.92-1.8h0a1.44,1.44,0,0,1,1.8-.92h0a1.43,1.43,0,0,1,.92,1.81h0a1.43,1.43,0,0,1-1.36,1h0A1.39,1.39,0,0,1,300.8,531.42Zm-4.15-1.34a1.43,1.43,0,0,1-.91-1.8h0a1.42,1.42,0,0,1,1.8-.92h0a1.43,1.43,0,0,1,.92,1.8h0a1.44,1.44,0,0,1-1.36,1h0A1.76,1.76,0,0,1,296.65,530.08Zm-4.14-1.35a1.43,1.43,0,0,1-.92-1.8h0a1.44,1.44,0,0,1,1.8-.92h0a1.43,1.43,0,0,1,.92,1.8h0a1.42,1.42,0,0,1-1.36,1h0A1.39,1.39,0,0,1,292.51,528.73Zm-4.14-1.35a1.42,1.42,0,0,1-.92-1.8h0a1.43,1.43,0,0,1,1.8-.92h0a1.44,1.44,0,0,1,.92,1.8h0a1.43,1.43,0,0,1-1.36,1h0A1.31,1.31,0,0,1,288.37,527.38ZM284.22,526a1.45,1.45,0,0,1-.92-1.81h0a1.42,1.42,0,0,1,1.8-.91h0a1.42,1.42,0,0,1,.92,1.8h0a1.43,1.43,0,0,1-1.36,1h0A1.75,1.75,0,0,1,284.22,526Z" transform="translate(-245.02 -446.56)"/><path class="cls-1" d="M313.68,535.54a2.4,2.4,0,0,1-.28,0,1.43,1.43,0,0,1-.27-.09,1.38,1.38,0,0,1-.46-.3,1.45,1.45,0,0,1-.43-1,2.4,2.4,0,0,1,0-.28,1.07,1.07,0,0,1,.09-.27,1.19,1.19,0,0,1,.13-.25,1.84,1.84,0,0,1,.17-.22l.22-.18.25-.13.27-.08a1.75,1.75,0,0,1,.56,0l.26.08.25.13.22.18.18.22a2,2,0,0,1,.13.25,1.73,1.73,0,0,1,.08.27,1.27,1.27,0,0,1,0,.28,1.48,1.48,0,0,1-.42,1,1.84,1.84,0,0,1-.22.17,1.19,1.19,0,0,1-.25.13,1.14,1.14,0,0,1-.26.09Z" transform="translate(-245.02 -446.56)"/><path class="cls-2" d="M315.85,532.15a1.44,1.44,0,0,1,.11-2h0a1.44,1.44,0,0,1,2,.11h0a1.43,1.43,0,0,1-.11,2h0a1.46,1.46,0,0,1-1,.37h0A1.44,1.44,0,0,1,315.85,532.15Zm3.24-2.92a1.43,1.43,0,0,1,.11-2h0a1.44,1.44,0,0,1,2,.1h0a1.44,1.44,0,0,1-.11,2h0a1.4,1.4,0,0,1-1,.37h0A1.43,1.43,0,0,1,319.09,529.23Zm3.24-2.92a1.43,1.43,0,0,1,.11-2h0a1.41,1.41,0,0,1,2,.11h0a1.43,1.43,0,0,1-.1,2h0a1.46,1.46,0,0,1-1,.37h0A1.44,1.44,0,0,1,322.33,526.31Zm3.24-2.91a1.43,1.43,0,0,1,.1-2h0a1.43,1.43,0,0,1,2,.1h0a1.43,1.43,0,0,1-.1,2h0a1.43,1.43,0,0,1-1,.37h0A1.43,1.43,0,0,1,325.57,523.4Zm3.24-2.92a1.43,1.43,0,0,1,.1-2h0a1.43,1.43,0,0,1,2,.11h0a1.42,1.42,0,0,1-.1,2h0a1.43,1.43,0,0,1-1,.37h0A1.43,1.43,0,0,1,328.81,520.48Zm3.24-2.92a1.41,1.41,0,0,1,.1-2h0a1.42,1.42,0,0,1,2,.1h0a1.43,1.43,0,0,1-.11,2h0a1.39,1.39,0,0,1-.95.37h0A1.4,1.4,0,0,1,332.05,517.56Zm3.23-2.91a1.44,1.44,0,0,1,.11-2h0a1.43,1.43,0,0,1,2,.1h0a1.43,1.43,0,0,1-.1,2h0a1.43,1.43,0,0,1-1,.37h0A1.47,1.47,0,0,1,335.28,514.65Z" transform="translate(-245.02 -446.56)"/><path class="cls-1" d="M339.59,512.2a1.27,1.27,0,0,1-.28,0,.84.84,0,0,1-.27-.08.85.85,0,0,1-.25-.13,1.18,1.18,0,0,1-.21-.18.91.91,0,0,1-.18-.21,1.19,1.19,0,0,1-.13-.25.84.84,0,0,1-.08-.27,1.27,1.27,0,0,1,0-.28,1.41,1.41,0,0,1,0-.28.79.79,0,0,1,.08-.26,1.19,1.19,0,0,1,.13-.25,1.24,1.24,0,0,1,.18-.22,1.45,1.45,0,0,1,1-.42,1.48,1.48,0,0,1,1,.42,1.84,1.84,0,0,1,.17.22,1.23,1.23,0,0,1,.14.25,2,2,0,0,1,.08.26,1.41,1.41,0,0,1,0,.28,1.27,1.27,0,0,1,0,.28,2.13,2.13,0,0,1-.08.27,1.23,1.23,0,0,1-.14.25,1.2,1.2,0,0,1-.17.21,1.24,1.24,0,0,1-.22.18.85.85,0,0,1-.25.13.79.79,0,0,1-.26.08Z" transform="translate(-245.02 -446.56)"/><path class="cls-1" d="M337.28,506.81a1.44,1.44,0,0,1,1.1-1.7h0a1.44,1.44,0,0,1,1.7,1.1h0a1.43,1.43,0,0,1-1.1,1.7h0l-.3,0h0A1.44,1.44,0,0,1,337.28,506.81Zm-.9-4.27a1.41,1.41,0,0,1,1.1-1.69h0a1.43,1.43,0,0,1,1.69,1.1h0a1.43,1.43,0,0,1-1.1,1.7h0a1.53,1.53,0,0,1-.3,0h0A1.42,1.42,0,0,1,336.38,502.54Zm-.91-4.26a1.43,1.43,0,0,1,1.1-1.69h0a1.43,1.43,0,0,1,1.7,1.1h0a1.43,1.43,0,0,1-1.1,1.69h0a1.08,1.08,0,0,1-.3,0h0A1.44,1.44,0,0,1,335.47,498.28Zm-.91-4.26a1.44,1.44,0,0,1,1.11-1.7h0a1.43,1.43,0,0,1,1.69,1.11h0a1.43,1.43,0,0,1-1.1,1.69h0l-.3,0h0A1.44,1.44,0,0,1,334.56,494Zm-.9-4.26a1.43,1.43,0,0,1,1.1-1.7h0a1.43,1.43,0,0,1,1.69,1.1h0a1.42,1.42,0,0,1-1.1,1.7h0l-.29,0h0A1.43,1.43,0,0,1,333.66,489.76Zm-.91-4.27a1.43,1.43,0,0,1,1.1-1.69h0a1.43,1.43,0,0,1,1.7,1.1h0a1.44,1.44,0,0,1-1.1,1.7h0l-.3,0h0A1.45,1.45,0,0,1,332.75,485.49Zm-.91-4.26a1.44,1.44,0,0,1,1.11-1.7h0a1.43,1.43,0,0,1,1.69,1.11h0a1.43,1.43,0,0,1-1.1,1.69h0a1.53,1.53,0,0,1-.3,0h0A1.44,1.44,0,0,1,331.84,481.23Z" transform="translate(-245.02 -446.56)"/><path class="cls-1" d="M332.34,478.1a1.27,1.27,0,0,1-.28,0,1.38,1.38,0,0,1-.27-.08,1.36,1.36,0,0,1-.24-.13,1,1,0,0,1-.22-.18,1.42,1.42,0,0,1-.42-1,1.33,1.33,0,0,1,0-.28.92.92,0,0,1,.08-.27,1.12,1.12,0,0,1,.13-.24,1,1,0,0,1,.18-.22,1.41,1.41,0,0,1,1-.42,1.44,1.44,0,0,1,1,.42,2.13,2.13,0,0,1,.18.22,1.83,1.83,0,0,1,.13.24,2.76,2.76,0,0,1,.08.27,1.33,1.33,0,0,1,0,.28,1.47,1.47,0,0,1-.42,1A1.44,1.44,0,0,1,332.34,478.1Z" transform="translate(-245.02 -446.56)"/><path class="cls-2" d="M327.75,476.68a1.43,1.43,0,0,1-.92-1.8h0a1.44,1.44,0,0,1,1.8-.92h0a1.44,1.44,0,0,1,.92,1.81h0a1.42,1.42,0,0,1-1.36,1h0A1.39,1.39,0,0,1,327.75,476.68Zm-4.14-1.34a1.43,1.43,0,0,1-.92-1.8h0a1.42,1.42,0,0,1,1.8-.92h0a1.43,1.43,0,0,1,.92,1.8h0a1.44,1.44,0,0,1-1.36,1h0A1.62,1.62,0,0,1,323.61,475.34ZM319.46,474a1.44,1.44,0,0,1-.92-1.8h0a1.44,1.44,0,0,1,1.8-.92h0a1.42,1.42,0,0,1,.92,1.8h0a1.43,1.43,0,0,1-1.36,1h0A1.39,1.39,0,0,1,319.46,474Zm-4.14-1.35a1.42,1.42,0,0,1-.92-1.8h0a1.43,1.43,0,0,1,1.8-.92h0a1.44,1.44,0,0,1,.92,1.8h0a1.43,1.43,0,0,1-1.36,1h0A1.31,1.31,0,0,1,315.32,472.64Zm-4.15-1.34a1.44,1.44,0,0,1-.92-1.81h0a1.42,1.42,0,0,1,1.8-.91h0a1.42,1.42,0,0,1,.92,1.8h0a1.43,1.43,0,0,1-1.36,1h0A1.75,1.75,0,0,1,311.17,471.3ZM307,470a1.43,1.43,0,0,1-.91-1.8h0a1.43,1.43,0,0,1,1.8-.92h0a1.43,1.43,0,0,1,.92,1.8h0a1.43,1.43,0,0,1-1.36,1h0A1.41,1.41,0,0,1,307,470Zm-4.14-1.35a1.43,1.43,0,0,1-.92-1.8h0a1.45,1.45,0,0,1,1.81-.92h0a1.44,1.44,0,0,1,.91,1.81h0a1.42,1.42,0,0,1-1.36,1h0A1.39,1.39,0,0,1,302.88,468.6Z" transform="translate(-245.02 -446.56)"/><path class="cls-1" d="M269.74,521.1a1.73,1.73,0,0,1-.32,0,1,1,0,0,1-.29-.1,1,1,0,0,1-.28-.14,2.31,2.31,0,0,1-.24-.2,1.59,1.59,0,0,1-.2-.24c-.05-.09-.1-.18-.14-.27a1.71,1.71,0,0,1-.09-.3,1.55,1.55,0,0,1,0-.31,1.63,1.63,0,0,1,0-.31,1.65,1.65,0,0,1,.23-.57,1.59,1.59,0,0,1,.2-.24,1.56,1.56,0,0,1,.52-.35,1.4,1.4,0,0,1,.29-.09,1.62,1.62,0,0,1,.62,0,1.32,1.32,0,0,1,.3.09,1.51,1.51,0,0,1,.28.15,2.12,2.12,0,0,1,.24.2,1.12,1.12,0,0,1,.19.24,1.17,1.17,0,0,1,.15.27,1.71,1.71,0,0,1,.09.3,1.63,1.63,0,0,1,0,.31,1.55,1.55,0,0,1,0,.31,1.71,1.71,0,0,1-.09.3,1.82,1.82,0,0,1-.15.27,1.12,1.12,0,0,1-.19.24A1.6,1.6,0,0,1,269.74,521.1Z" transform="translate(-245.02 -446.56)"/><path class="cls-1" d="M300.22,540.43a1.6,1.6,0,0,1-.51-2.19h0a1.59,1.59,0,0,1,2.19-.5h0a1.59,1.59,0,0,1,.51,2.19h0a1.59,1.59,0,0,1-1.35.74h0A1.51,1.51,0,0,1,300.22,540.43ZM296.3,538a1.58,1.58,0,0,1-.5-2.18h0a1.59,1.59,0,0,1,2.19-.51h0a1.59,1.59,0,0,1,.5,2.19h0a1.6,1.6,0,0,1-1.35.75h0A1.57,1.57,0,0,1,296.3,538Zm-3.91-2.44a1.59,1.59,0,0,1-.51-2.19h0a1.6,1.6,0,0,1,2.19-.51h0a1.59,1.59,0,0,1,.51,2.19h0a1.57,1.57,0,0,1-1.35.75h0A1.6,1.6,0,0,1,292.39,535.54Zm-3.92-2.45a1.59,1.59,0,0,1-.5-2.19h0a1.58,1.58,0,0,1,2.18-.5h0a1.58,1.58,0,0,1,.51,2.19h0a1.59,1.59,0,0,1-1.35.74h0A1.6,1.6,0,0,1,288.47,533.09Zm-3.91-2.44a1.59,1.59,0,0,1-.51-2.2h0a1.59,1.59,0,0,1,2.19-.5h0a1.6,1.6,0,0,1,.51,2.19h0a1.61,1.61,0,0,1-1.35.75h0A1.6,1.6,0,0,1,284.56,530.65Zm-3.92-2.45a1.6,1.6,0,0,1-.51-2.19h0a1.59,1.59,0,0,1,2.19-.51h0a1.58,1.58,0,0,1,.51,2.19h0a1.6,1.6,0,0,1-1.35.75h0A1.6,1.6,0,0,1,280.64,528.2Zm-3.91-2.45a1.58,1.58,0,0,1-.51-2.19h0a1.59,1.59,0,0,1,2.19-.5h0a1.58,1.58,0,0,1,.5,2.18h0a1.57,1.57,0,0,1-1.35.75h0A1.59,1.59,0,0,1,276.73,525.75Zm-3.92-2.45a1.59,1.59,0,0,1-.51-2.19h0a1.6,1.6,0,0,1,2.19-.5h0a1.59,1.59,0,0,1,.51,2.19h0a1.59,1.59,0,0,1-1.35.74h0A1.51,1.51,0,0,1,272.81,523.3Z" transform="translate(-245.02 -446.56)"/><path class="cls-1" d="M305,543.12a1.64,1.64,0,0,1-1.13-.46,1.5,1.5,0,0,1-.19-.25,1.17,1.17,0,0,1-.15-.27,1.49,1.49,0,0,1-.09-.3,1.55,1.55,0,0,1,0-.31,1.6,1.6,0,0,1,.46-1.12,1.62,1.62,0,0,1,1.44-.44,1.76,1.76,0,0,1,.3.1,1.16,1.16,0,0,1,.27.14,2.31,2.31,0,0,1,.24.2,1.57,1.57,0,0,1,.47,1.12,3,3,0,0,1,0,.31,2.64,2.64,0,0,1-.1.3,1.15,1.15,0,0,1-.14.27,2.43,2.43,0,0,1-.2.25A1.63,1.63,0,0,1,305,543.12Z" transform="translate(-245.02 -446.56)"/><path class="cls-2" d="M307.65,540.11a1.59,1.59,0,0,1,.66-2.15h0a1.6,1.6,0,0,1,2.15.66h0a1.59,1.59,0,0,1-.66,2.14h0a1.55,1.55,0,0,1-.75.19h0A1.59,1.59,0,0,1,307.65,540.11Zm4.08-2.17a1.6,1.6,0,0,1,.65-2.15h0a1.6,1.6,0,0,1,2.15.66h0a1.58,1.58,0,0,1-.65,2.15h0a1.67,1.67,0,0,1-.75.19h0A1.58,1.58,0,0,1,311.73,537.94Zm4.08-2.17a1.57,1.57,0,0,1,.65-2.14h0a1.58,1.58,0,0,1,2.15.65h0a1.59,1.59,0,0,1-.66,2.15h0a1.51,1.51,0,0,1-.74.19h0A1.58,1.58,0,0,1,315.81,535.77Zm4.07-2.16a1.59,1.59,0,0,1,.66-2.15h0a1.6,1.6,0,0,1,2.15.65h0a1.59,1.59,0,0,1-.66,2.15h0a1.54,1.54,0,0,1-.74.19h0A1.61,1.61,0,0,1,319.88,533.61Zm4.08-2.17a1.59,1.59,0,0,1,.66-2.15h0a1.58,1.58,0,0,1,2.14.66h0a1.57,1.57,0,0,1-.65,2.14h0a1.58,1.58,0,0,1-.75.19h0A1.57,1.57,0,0,1,324,531.44Zm4.08-2.17a1.59,1.59,0,0,1,.65-2.15h0a1.59,1.59,0,0,1,2.15.66h0a1.59,1.59,0,0,1-.65,2.15h0a1.69,1.69,0,0,1-.75.18h0A1.57,1.57,0,0,1,328,529.27Zm4.07-2.17a1.59,1.59,0,0,1,.66-2.14h0a1.59,1.59,0,0,1,2.15.65h0a1.59,1.59,0,0,1-.66,2.15h0a1.66,1.66,0,0,1-.74.19h0A1.6,1.6,0,0,1,332.11,527.1Zm4.08-2.17a1.58,1.58,0,0,1,.66-2.14h0a1.6,1.6,0,0,1,2.15.65h0a1.6,1.6,0,0,1-.66,2.15h0a1.55,1.55,0,0,1-.75.19h0A1.6,1.6,0,0,1,336.19,524.93Z" transform="translate(-245.02 -446.56)"/><path class="cls-1" d="M341.67,523.61a1.63,1.63,0,0,1-.31,0l-.3-.09a1.43,1.43,0,0,1-.27-.15,1.73,1.73,0,0,1-.44-.44,1.17,1.17,0,0,1-.15-.27,1.71,1.71,0,0,1-.09-.3,1.63,1.63,0,0,1,0-.31,1.57,1.57,0,0,1,.47-1.12,1.59,1.59,0,0,1,.24-.2,1,1,0,0,1,.27-.14,1.76,1.76,0,0,1,.3-.1,1.62,1.62,0,0,1,.62,0,1.76,1.76,0,0,1,.3.1,1.16,1.16,0,0,1,.27.14,2.43,2.43,0,0,1,.25.2,1.6,1.6,0,0,1,.46,1.12,1.63,1.63,0,0,1,0,.31,1.71,1.71,0,0,1-.09.3,1.17,1.17,0,0,1-.15.27,1.59,1.59,0,0,1-.2.24A1.57,1.57,0,0,1,341.67,523.61Z" transform="translate(-245.02 -446.56)"/><path class="cls-1" d="M341.78,519a1.6,1.6,0,0,1-1.54-1.65h0a1.6,1.6,0,0,1,1.65-1.53h0a1.59,1.59,0,0,1,1.53,1.64h0a1.6,1.6,0,0,1-1.59,1.54h-.05Zm.16-4.62a1.58,1.58,0,0,1-1.53-1.64h0a1.57,1.57,0,0,1,1.64-1.53h0a1.57,1.57,0,0,1,1.53,1.64h0a1.58,1.58,0,0,1-1.59,1.53h-.05Zm.16-4.61a1.6,1.6,0,0,1-1.53-1.65h0a1.59,1.59,0,0,1,1.64-1.53h0a1.59,1.59,0,0,1,1.53,1.64h0a1.6,1.6,0,0,1-1.59,1.54h0Zm.16-4.62a1.59,1.59,0,0,1-1.53-1.64h0a1.57,1.57,0,0,1,1.64-1.53h0a1.57,1.57,0,0,1,1.53,1.64h0a1.58,1.58,0,0,1-1.58,1.53h-.06Zm.16-4.61a1.59,1.59,0,0,1-1.53-1.65h0a1.59,1.59,0,0,1,1.64-1.53h0a1.59,1.59,0,0,1,1.53,1.65h0a1.59,1.59,0,0,1-1.58,1.53h-.06Zm.16-4.62a1.59,1.59,0,0,1-1.53-1.64h0a1.58,1.58,0,0,1,1.64-1.53h0a1.58,1.58,0,0,1,1.53,1.64h0a1.58,1.58,0,0,1-1.58,1.53h-.06Zm.16-4.61a1.59,1.59,0,0,1-1.53-1.65h0a1.59,1.59,0,0,1,1.64-1.53h0a1.6,1.6,0,0,1,1.54,1.65h0a1.6,1.6,0,0,1-1.59,1.53h-.06Zm.16-4.62a1.59,1.59,0,0,1-1.53-1.64h0a1.59,1.59,0,0,1,1.64-1.53h0a1.59,1.59,0,0,1,1.54,1.64h0a1.59,1.59,0,0,1-1.59,1.53h-.06Z" transform="translate(-245.02 -446.56)"/><path class="cls-1" d="M343.12,482.08a1.63,1.63,0,0,1-.31,0l-.3-.09a1.82,1.82,0,0,1-.27-.15,1.16,1.16,0,0,1-.24-.2,1.58,1.58,0,0,1-.44-1.43,1.71,1.71,0,0,1,.09-.3,1.82,1.82,0,0,1,.15-.27,1.57,1.57,0,0,1,.2-.25,1.55,1.55,0,0,1,.24-.19l.27-.15.3-.09a1.62,1.62,0,0,1,.62,0l.3.09a1.43,1.43,0,0,1,.27.15,1.55,1.55,0,0,1,.24.19,1.57,1.57,0,0,1,.2.25,1.82,1.82,0,0,1,.15.27,1.71,1.71,0,0,1,.09.3,1.58,1.58,0,0,1-.44,1.43,1.16,1.16,0,0,1-.24.2,1.43,1.43,0,0,1-.27.15l-.3.09A1.63,1.63,0,0,1,343.12,482.08Z" transform="translate(-245.02 -446.56)"/><path class="cls-2" d="M338.36,479.39a1.59,1.59,0,0,1-.5-2.19h0a1.59,1.59,0,0,1,2.19-.5h0a1.59,1.59,0,0,1,.5,2.19h0a1.59,1.59,0,0,1-1.35.74h0A1.63,1.63,0,0,1,338.36,479.39Zm-3.91-2.45a1.58,1.58,0,0,1-.51-2.18h0a1.58,1.58,0,0,1,2.19-.51h0a1.59,1.59,0,0,1,.5,2.19h0a1.58,1.58,0,0,1-1.34.75h0A1.52,1.52,0,0,1,334.45,476.94Zm-3.92-2.44a1.59,1.59,0,0,1-.5-2.19h0a1.59,1.59,0,0,1,2.19-.51h0a1.6,1.6,0,0,1,.5,2.19h0a1.6,1.6,0,0,1-1.35.75h0A1.6,1.6,0,0,1,330.53,474.5Zm-3.92-2.45a1.6,1.6,0,0,1-.5-2.19h0a1.6,1.6,0,0,1,2.19-.51h0a1.59,1.59,0,0,1,.5,2.19h0a1.57,1.57,0,0,1-1.34.75h0A1.66,1.66,0,0,1,326.61,472.05Zm-3.91-2.45a1.58,1.58,0,0,1-.5-2.19h0a1.58,1.58,0,0,1,2.18-.5h0a1.59,1.59,0,0,1,.51,2.19h0a1.59,1.59,0,0,1-1.35.74h0A1.51,1.51,0,0,1,322.7,469.6Zm-3.92-2.44a1.59,1.59,0,0,1-.5-2.19h0a1.59,1.59,0,0,1,2.19-.51h0a1.59,1.59,0,0,1,.5,2.19h0a1.6,1.6,0,0,1-1.35.75h0A1.63,1.63,0,0,1,318.78,467.16Zm-3.91-2.45a1.59,1.59,0,0,1-.51-2.19h0a1.59,1.59,0,0,1,2.19-.5h0a1.58,1.58,0,0,1,.51,2.18h0a1.57,1.57,0,0,1-1.35.75h0A1.6,1.6,0,0,1,314.87,464.71ZM311,462.26a1.59,1.59,0,0,1-.5-2.19h0a1.59,1.59,0,0,1,2.19-.5h0a1.59,1.59,0,0,1,.5,2.19h0a1.59,1.59,0,0,1-1.35.74h0A1.51,1.51,0,0,1,311,462.26Z" transform="translate(-245.02 -446.56)"/><path class="cls-1" d="M307.88,460.05a1.56,1.56,0,0,1-.31,0,1.51,1.51,0,0,1-.3-.1.87.87,0,0,1-.27-.14,2.43,2.43,0,0,1-.25-.2,1.12,1.12,0,0,1-.19-.24,1.82,1.82,0,0,1-.15-.27,1.71,1.71,0,0,1-.09-.3,1.63,1.63,0,0,1,0-.31,1.55,1.55,0,0,1,0-.31,1.49,1.49,0,0,1,.09-.3,1.17,1.17,0,0,1,.15-.27,1.5,1.5,0,0,1,.19-.25l.25-.19a1.17,1.17,0,0,1,.27-.15,1.49,1.49,0,0,1,.3-.09,1.64,1.64,0,0,1,1.43.43,2.43,2.43,0,0,1,.2.25,1.15,1.15,0,0,1,.14.27,1.51,1.51,0,0,1,.1.3,1.55,1.55,0,0,1,0,.31,1.63,1.63,0,0,1,0,.31,1.76,1.76,0,0,1-.1.3,1.74,1.74,0,0,1-.14.27,1.59,1.59,0,0,1-.2.24A1.56,1.56,0,0,1,307.88,460.05Z" transform="translate(-245.02 -446.56)"/><path class="cls-1" d="M273.86,476.56a1.59,1.59,0,0,1,.66-2.15h0a1.58,1.58,0,0,1,2.14.65h0a1.58,1.58,0,0,1-.65,2.15h0a1.58,1.58,0,0,1-.75.19h0A1.61,1.61,0,0,1,273.86,476.56Zm4.08-2.17a1.58,1.58,0,0,1,.65-2.15h0a1.59,1.59,0,0,1,2.15.66h0a1.58,1.58,0,0,1-.66,2.14h0a1.51,1.51,0,0,1-.74.19h0A1.58,1.58,0,0,1,277.94,474.39Zm4.07-2.17a1.59,1.59,0,0,1,.66-2.15h0a1.59,1.59,0,0,1,2.15.66h0a1.6,1.6,0,0,1-.66,2.15h0a1.65,1.65,0,0,1-.74.18h0A1.59,1.59,0,0,1,282,472.22Zm4.08-2.17a1.58,1.58,0,0,1,.66-2.14h0a1.59,1.59,0,0,1,2.15.65h0a1.6,1.6,0,0,1-.66,2.15h0a1.65,1.65,0,0,1-.74.18h0A1.59,1.59,0,0,1,286.09,470.05Zm4.08-2.17a1.57,1.57,0,0,1,.65-2.14h0a1.59,1.59,0,0,1,2.15.65h0a1.58,1.58,0,0,1-.66,2.15h0a1.51,1.51,0,0,1-.74.19h0A1.58,1.58,0,0,1,290.17,467.88Zm4.07-2.16a1.6,1.6,0,0,1,.66-2.15h0a1.59,1.59,0,0,1,2.15.66h0a1.58,1.58,0,0,1-.66,2.14h0a1.51,1.51,0,0,1-.74.19h0A1.61,1.61,0,0,1,294.24,465.72Zm4.08-2.17a1.59,1.59,0,0,1,.66-2.15h0a1.59,1.59,0,0,1,2.15.66h0a1.6,1.6,0,0,1-.66,2.15h0a1.66,1.66,0,0,1-.75.18h0A1.59,1.59,0,0,1,298.32,463.55Zm4.08-2.17a1.6,1.6,0,0,1,.65-2.15h0a1.59,1.59,0,0,1,2.15.66h0a1.59,1.59,0,0,1-.65,2.15h0a1.69,1.69,0,0,1-.75.18h0A1.57,1.57,0,0,1,302.4,461.38Z" transform="translate(-245.02 -446.56)"/><path class="cls-1" d="M271.18,479.57a1.63,1.63,0,0,1-1.32-.71c-.05-.09-.1-.18-.14-.27a1.71,1.71,0,0,1-.09-.3,1.63,1.63,0,0,1,0-.31,1.6,1.6,0,0,1,.46-1.12,2.12,2.12,0,0,1,.24-.2,1.51,1.51,0,0,1,.28-.15,1.4,1.4,0,0,1,.29-.09,1.67,1.67,0,0,1,.63,0,1.4,1.4,0,0,1,.29.09,1.56,1.56,0,0,1,.52.35,1.6,1.6,0,0,1,.46,1.12,1.63,1.63,0,0,1,0,.31,1.71,1.71,0,0,1-.09.3c0,.09-.09.18-.14.27a1.59,1.59,0,0,1-.2.24,2.31,2.31,0,0,1-.24.2,1,1,0,0,1-.28.14,1.42,1.42,0,0,1-.29.1A1.73,1.73,0,0,1,271.18,479.57Z" transform="translate(-245.02 -446.56)"/><path class="cls-2" d="M269.84,516.48a1.58,1.58,0,0,1-1.53-1.64h0a1.58,1.58,0,0,1,1.64-1.53h0a1.58,1.58,0,0,1,1.53,1.64h0a1.58,1.58,0,0,1-1.58,1.53h-.06Zm.16-4.61a1.6,1.6,0,0,1-1.53-1.65h0a1.59,1.59,0,0,1,1.64-1.53h0a1.6,1.6,0,0,1,1.54,1.65h0a1.6,1.6,0,0,1-1.59,1.53H270Zm.16-4.62a1.58,1.58,0,0,1-1.53-1.64h0a1.59,1.59,0,0,1,1.64-1.53h0a1.58,1.58,0,0,1,1.53,1.64h0a1.57,1.57,0,0,1-1.58,1.53h-.06Zm.16-4.61a1.6,1.6,0,0,1-1.53-1.65h0a1.59,1.59,0,0,1,1.64-1.53h0a1.6,1.6,0,0,1,1.54,1.65h0a1.6,1.6,0,0,1-1.59,1.53h-.06Zm.17-4.62a1.58,1.58,0,0,1-1.54-1.64h0a1.59,1.59,0,0,1,1.65-1.53h0a1.59,1.59,0,0,1,1.53,1.64h0a1.59,1.59,0,0,1-1.59,1.53h-.05Zm.15-4.61a1.6,1.6,0,0,1-1.53-1.65h0a1.6,1.6,0,0,1,1.65-1.53h0a1.6,1.6,0,0,1,1.53,1.65h0a1.6,1.6,0,0,1-1.59,1.53h-.06Zm.17-4.62a1.57,1.57,0,0,1-1.53-1.64h0a1.59,1.59,0,0,1,1.64-1.53h0a1.59,1.59,0,0,1,1.53,1.64h0a1.59,1.59,0,0,1-1.59,1.53h-.05Zm.16-4.61a1.59,1.59,0,0,1-1.53-1.64h0a1.59,1.59,0,0,1,1.64-1.54h0a1.6,1.6,0,0,1,1.53,1.65h0a1.59,1.59,0,0,1-1.58,1.53H271Z" transform="translate(-245.02 -446.56)"/><path class="cls-1" d="M341,537.53a2,2,0,0,1-.34,0l-.33-.1-.3-.16a2.75,2.75,0,0,1-.26-.22,1.77,1.77,0,0,1-.52-1.24,2,2,0,0,1,0-.34,2.07,2.07,0,0,1,.1-.33,2.19,2.19,0,0,1,.16-.3,2.05,2.05,0,0,1,.48-.48,2.19,2.19,0,0,1,.3-.16,1.39,1.39,0,0,1,.33-.1,1.56,1.56,0,0,1,.68,0,1.26,1.26,0,0,1,.33.1,1.78,1.78,0,0,1,.57.38,2.75,2.75,0,0,1,.22.26c.06.1.11.2.16.3s.07.22.1.33a2,2,0,0,1,0,.34,1.8,1.8,0,0,1-.51,1.24,2,2,0,0,1-.27.22,2.11,2.11,0,0,1-.3.16l-.33.1A1.87,1.87,0,0,1,341,537.53Z" transform="translate(-245.02 -446.56)"/><path class="cls-1" d="M341.87,532.68a1.75,1.75,0,0,1-1.2-2.16h0a1.75,1.75,0,0,1,2.16-1.2h0a1.74,1.74,0,0,1,1.2,2.16h0a1.74,1.74,0,0,1-1.68,1.27h0A1.59,1.59,0,0,1,341.87,532.68Zm1.37-4.78a1.75,1.75,0,0,1-1.19-2.16h0a1.74,1.74,0,0,1,2.16-1.2h0a1.74,1.74,0,0,1,1.19,2.16h0a1.74,1.74,0,0,1-1.67,1.27h0A1.66,1.66,0,0,1,343.24,527.9Zm1.37-4.78a1.76,1.76,0,0,1-1.2-2.16h0a1.75,1.75,0,0,1,2.17-1.2h0a1.75,1.75,0,0,1,1.2,2.16h0a1.78,1.78,0,0,1-1.68,1.27h0A2.07,2.07,0,0,1,344.61,523.12Zm1.37-4.79a1.74,1.74,0,0,1-1.19-2.16h0A1.74,1.74,0,0,1,347,515h0a1.75,1.75,0,0,1,1.2,2.16h0a1.75,1.75,0,0,1-1.68,1.26h0A1.71,1.71,0,0,1,346,518.33Zm1.37-4.78a1.74,1.74,0,0,1-1.19-2.16h0a1.74,1.74,0,0,1,2.16-1.19h0a1.75,1.75,0,0,1,1.2,2.16h0a1.75,1.75,0,0,1-1.68,1.26h0A1.71,1.71,0,0,1,347.35,513.55Zm1.38-4.78a1.74,1.74,0,0,1-1.2-2.16h0a1.75,1.75,0,0,1,2.16-1.2h0a1.76,1.76,0,0,1,1.2,2.16h0a1.75,1.75,0,0,1-1.68,1.27h0A1.59,1.59,0,0,1,348.73,508.77ZM350.1,504a1.74,1.74,0,0,1-1.2-2.16h0a1.75,1.75,0,0,1,2.16-1.2h0a1.74,1.74,0,0,1,1.2,2.16h0a1.75,1.75,0,0,1-1.68,1.27h0A1.59,1.59,0,0,1,350.1,504Zm1.37-4.78a1.74,1.74,0,0,1-1.2-2.16h0a1.74,1.74,0,0,1,2.16-1.2h0a1.74,1.74,0,0,1,1.2,2.16h0a1.75,1.75,0,0,1-1.68,1.27h0A2,2,0,0,1,351.47,499.21Zm1.37-4.78a1.76,1.76,0,0,1-1.2-2.16h0a1.75,1.75,0,0,1,2.16-1.2h0a1.74,1.74,0,0,1,1.2,2.16h0a1.74,1.74,0,0,1-1.68,1.26h0A2,2,0,0,1,352.84,494.43Z" transform="translate(-245.02 -446.56)"/><path class="cls-1" d="M354.69,489.71a2,2,0,0,1-.34,0,1.7,1.7,0,0,1-.32-.1l-.31-.16a2.75,2.75,0,0,1-.26-.22,1.44,1.44,0,0,1-.22-.27,1.64,1.64,0,0,1-.16-.29,1.39,1.39,0,0,1-.1-.33,2,2,0,0,1,0-.34,1.87,1.87,0,0,1,0-.34,1.15,1.15,0,0,1,.1-.33,1.78,1.78,0,0,1,.38-.57,2.75,2.75,0,0,1,.26-.22l.31-.16.32-.1a1.94,1.94,0,0,1,.68,0l.33.1a2.11,2.11,0,0,1,.3.16,1.72,1.72,0,0,1,.49.49,2.11,2.11,0,0,1,.16.3,2.58,2.58,0,0,1,.1.33,1.87,1.87,0,0,1,0,.34,2,2,0,0,1,0,.34c0,.11-.06.22-.1.33a2.69,2.69,0,0,1-.16.29,1.72,1.72,0,0,1-.49.49,2.11,2.11,0,0,1-.3.16,1.59,1.59,0,0,1-.33.1A1.87,1.87,0,0,1,354.69,489.71Z" transform="translate(-245.02 -446.56)"/><path class="cls-2" d="M350,485.6a1.75,1.75,0,0,1,0-2.47h0a1.75,1.75,0,0,1,2.47,0h0a1.75,1.75,0,0,1,0,2.48h0a1.76,1.76,0,0,1-1.21.49h0A1.73,1.73,0,0,1,350,485.6ZM346.53,482a1.73,1.73,0,0,1,0-2.47h0a1.75,1.75,0,0,1,2.47,0h0a1.76,1.76,0,0,1,0,2.48h0a1.79,1.79,0,0,1-1.22.49h0A1.72,1.72,0,0,1,346.53,482Zm-3.46-3.58a1.74,1.74,0,0,1,0-2.46h0a1.73,1.73,0,0,1,2.47,0h0a1.74,1.74,0,0,1,0,2.47h0a1.74,1.74,0,0,1-1.21.49h0A1.73,1.73,0,0,1,343.07,478.44Zm-3.45-3.57a1.74,1.74,0,0,1,0-2.48h0a1.75,1.75,0,0,1,2.47.05h0a1.74,1.74,0,0,1-.05,2.47h0a1.7,1.7,0,0,1-1.21.49h0A1.73,1.73,0,0,1,339.62,474.87Zm-3.46-3.58a1.75,1.75,0,0,1,0-2.47h0a1.75,1.75,0,0,1,2.47,0h0a1.75,1.75,0,0,1,0,2.47h0a1.74,1.74,0,0,1-1.21.49h0A1.76,1.76,0,0,1,336.16,471.29Zm-3.46-3.58a1.74,1.74,0,0,1,.05-2.47h0a1.75,1.75,0,0,1,2.47,0h0a1.74,1.74,0,0,1-.05,2.47h0a1.73,1.73,0,0,1-1.21.5h0A1.77,1.77,0,0,1,332.7,467.71Zm-3.45-3.58a1.75,1.75,0,0,1,0-2.47h0a1.75,1.75,0,0,1,2.47,0h0a1.76,1.76,0,0,1,0,2.48h0a1.78,1.78,0,0,1-1.22.48h0A1.71,1.71,0,0,1,329.25,464.13Zm-3.46-3.58a1.74,1.74,0,0,1,0-2.47h0a1.74,1.74,0,0,1,2.47.05h0a1.74,1.74,0,0,1-.05,2.47h0a1.72,1.72,0,0,1-1.21.49h0A1.73,1.73,0,0,1,325.79,460.55ZM322.34,457a1.76,1.76,0,0,1,0-2.48h0a1.74,1.74,0,0,1,2.47.05h0a1.75,1.75,0,0,1,0,2.47h0a1.79,1.79,0,0,1-1.22.49h0A1.75,1.75,0,0,1,322.34,457Z" transform="translate(-245.02 -446.56)"/><path class="cls-1" d="M320.14,453.93a2,2,0,0,1-.34,0,2.07,2.07,0,0,1-.33-.1,2.11,2.11,0,0,1-.3-.16,2,2,0,0,1-.27-.22,1.79,1.79,0,0,1-.51-1.23,1.76,1.76,0,0,1,.51-1.24,1.78,1.78,0,0,1,.57-.38,2.07,2.07,0,0,1,.33-.1,1.77,1.77,0,0,1,1.58.48,2.65,2.65,0,0,1,.21.26,1.46,1.46,0,0,1,.16.3,2.07,2.07,0,0,1,.1.33,2,2,0,0,1,0,.35,1.79,1.79,0,0,1-.51,1.23A1.76,1.76,0,0,1,320.14,453.93Z" transform="translate(-245.02 -446.56)"/><path class="cls-1" d="M275,463.44a1.75,1.75,0,0,1,1.28-2.12h0a1.75,1.75,0,0,1,2.12,1.27h0a1.75,1.75,0,0,1-1.28,2.12h0a2,2,0,0,1-.42.05h0A1.76,1.76,0,0,1,275,463.44Zm4.83-1.21a1.75,1.75,0,0,1,1.27-2.11h0a1.74,1.74,0,0,1,2.12,1.27h0a1.75,1.75,0,0,1-1.27,2.12h0a2,2,0,0,1-.42.05h0A1.75,1.75,0,0,1,279.83,462.23Zm4.83-1.2a1.74,1.74,0,0,1,1.27-2.12h0a1.76,1.76,0,0,1,2.12,1.28h0a1.74,1.74,0,0,1-1.28,2.11h0a1.52,1.52,0,0,1-.42.06h0A1.76,1.76,0,0,1,284.66,461Zm4.82-1.2a1.75,1.75,0,0,1,1.28-2.12h0a1.74,1.74,0,0,1,2.11,1.27h0a1.74,1.74,0,0,1-1.27,2.12h0a1.51,1.51,0,0,1-.42,0h0A1.75,1.75,0,0,1,289.48,459.83Zm4.83-1.21a1.75,1.75,0,0,1,1.27-2.11h0a1.74,1.74,0,0,1,2.12,1.27h0a1.75,1.75,0,0,1-1.27,2.12h0a2.1,2.1,0,0,1-.43.05h0A1.75,1.75,0,0,1,294.31,458.62Zm4.83-1.2a1.74,1.74,0,0,1,1.27-2.12h0a1.76,1.76,0,0,1,2.12,1.27h0a1.75,1.75,0,0,1-1.27,2.12h0a1.65,1.65,0,0,1-.43.06h0A1.75,1.75,0,0,1,299.14,457.42Zm4.82-1.2a1.75,1.75,0,0,1,1.28-2.12h0a1.75,1.75,0,0,1,2.12,1.27h0a1.75,1.75,0,0,1-1.28,2.12h0a1.51,1.51,0,0,1-.42.05h0A1.75,1.75,0,0,1,304,456.22Zm4.83-1.21a1.75,1.75,0,0,1,1.27-2.12h0a1.75,1.75,0,0,1,2.12,1.28h0a1.76,1.76,0,0,1-1.27,2.12h0a2.1,2.1,0,0,1-.43,0h0A1.75,1.75,0,0,1,308.79,455Zm4.83-1.2a1.74,1.74,0,0,1,1.27-2.12h0A1.76,1.76,0,0,1,317,453h0a1.75,1.75,0,0,1-1.27,2.12h0a1.63,1.63,0,0,1-.43.05h0A1.74,1.74,0,0,1,313.62,453.81Z" transform="translate(-245.02 -446.56)"/><path class="cls-1" d="M271.87,466a1.72,1.72,0,0,1-1.23-.51,1.78,1.78,0,0,1-.22-.26,2.19,2.19,0,0,1-.16-.3,2.07,2.07,0,0,1-.1-.33,2,2,0,0,1,0-.34,1.76,1.76,0,0,1,.51-1.24,1.78,1.78,0,0,1,1.57-.48l.33.1a2.11,2.11,0,0,1,.3.16,2,2,0,0,1,.27.22,1.8,1.8,0,0,1,.51,1.24,1.74,1.74,0,0,1-1.75,1.74Z" transform="translate(-245.02 -446.56)"/><path class="cls-2" d="M259.05,508.93a1.75,1.75,0,0,1-1.2-2.16h0a1.76,1.76,0,0,1,2.16-1.2h0a1.75,1.75,0,0,1,1.2,2.16h0a1.75,1.75,0,0,1-1.68,1.27h0A1.64,1.64,0,0,1,259.05,508.93Zm1.37-4.78a1.75,1.75,0,0,1-1.2-2.16h0a1.75,1.75,0,0,1,2.17-1.2h0a1.74,1.74,0,0,1,1.19,2.16h0a1.73,1.73,0,0,1-1.67,1.27h0A1.61,1.61,0,0,1,260.42,504.15Zm1.37-4.78a1.74,1.74,0,0,1-1.19-2.16h0a1.74,1.74,0,0,1,2.16-1.2h0a1.74,1.74,0,0,1,1.19,2.16h0a1.74,1.74,0,0,1-1.67,1.27h0A1.71,1.71,0,0,1,261.79,499.37Zm1.38-4.78a1.75,1.75,0,0,1-1.2-2.16h0a1.74,1.74,0,0,1,2.16-1.2h0a1.75,1.75,0,0,1,1.2,2.16h0a1.76,1.76,0,0,1-1.68,1.27h0A1.92,1.92,0,0,1,263.17,494.59Zm1.36-4.79a1.74,1.74,0,0,1-1.19-2.16h0a1.74,1.74,0,0,1,2.16-1.19h0a1.75,1.75,0,0,1,1.2,2.16h0a1.75,1.75,0,0,1-1.68,1.26h0A1.71,1.71,0,0,1,264.53,489.8Zm1.38-4.78a1.74,1.74,0,0,1-1.2-2.16h0a1.74,1.74,0,0,1,2.16-1.19h0a1.75,1.75,0,0,1,1.2,2.16h0a1.75,1.75,0,0,1-1.68,1.26h0A1.59,1.59,0,0,1,265.91,485Zm1.37-4.78a1.75,1.75,0,0,1-1.2-2.16h0a1.75,1.75,0,0,1,2.16-1.2h0a1.76,1.76,0,0,1,1.2,2.16h0a1.75,1.75,0,0,1-1.68,1.27h0A1.59,1.59,0,0,1,267.28,480.24Zm1.37-4.78a1.74,1.74,0,0,1-1.2-2.16h0a1.75,1.75,0,0,1,2.16-1.2h0a1.74,1.74,0,0,1,1.2,2.16h0a1.75,1.75,0,0,1-1.68,1.27h0A1.59,1.59,0,0,1,268.65,475.46Zm1.37-4.78a1.75,1.75,0,0,1-1.2-2.16h0a1.75,1.75,0,0,1,2.16-1.2h0a1.74,1.74,0,0,1,1.2,2.16h0a1.75,1.75,0,0,1-1.68,1.27h0A2,2,0,0,1,270,470.68Z" transform="translate(-245.02 -446.56)"/><path class="cls-1" d="M258.16,513.78a2,2,0,0,1-.34,0l-.33-.1-.3-.16a2.75,2.75,0,0,1-.26-.22,1.75,1.75,0,0,1-.52-1.24,1.73,1.73,0,0,1,.52-1.23,2.75,2.75,0,0,1,.26-.22l.3-.16a2.07,2.07,0,0,1,.33-.1,1.56,1.56,0,0,1,.68,0,1.8,1.8,0,0,1,.33.1,2.11,2.11,0,0,1,.3.16,2,2,0,0,1,.27.22,1.76,1.76,0,0,1,.51,1.23,1.78,1.78,0,0,1-.51,1.24,2,2,0,0,1-.27.22,2.11,2.11,0,0,1-.3.16l-.33.1A1.87,1.87,0,0,1,258.16,513.78Z" transform="translate(-245.02 -446.56)"/><path class="cls-1" d="M288,545.45a1.74,1.74,0,0,1,.05-2.47h0a1.75,1.75,0,0,1,2.47,0h0a1.76,1.76,0,0,1,0,2.48h0a1.78,1.78,0,0,1-1.22.48h0A1.73,1.73,0,0,1,288,545.45Zm-3.45-3.58a1.75,1.75,0,0,1,0-2.47h0a1.74,1.74,0,0,1,2.47.05h0a1.75,1.75,0,0,1,0,2.47h0a1.74,1.74,0,0,1-1.21.49h0A1.73,1.73,0,0,1,284.55,541.87Zm-3.46-3.57a1.76,1.76,0,0,1,0-2.48h0a1.75,1.75,0,0,1,2.48,0h0a1.74,1.74,0,0,1-.05,2.47h0a1.74,1.74,0,0,1-1.21.49h0A1.77,1.77,0,0,1,281.09,538.3Zm-3.45-3.58a1.75,1.75,0,0,1,0-2.47h0a1.75,1.75,0,0,1,2.47,0h0a1.75,1.75,0,0,1,0,2.47h0a1.74,1.74,0,0,1-1.21.49h0A1.76,1.76,0,0,1,277.64,534.72Zm-3.46-3.58a1.75,1.75,0,0,1,0-2.47h0a1.76,1.76,0,0,1,2.48,0h0a1.74,1.74,0,0,1-.05,2.47h0a1.72,1.72,0,0,1-1.21.49h0A1.76,1.76,0,0,1,274.18,531.14Zm-3.45-3.58a1.75,1.75,0,0,1,0-2.47h0a1.75,1.75,0,0,1,2.47,0h0a1.75,1.75,0,0,1,0,2.47h0a1.74,1.74,0,0,1-1.21.49h0A1.72,1.72,0,0,1,270.73,527.56ZM267.27,524a1.75,1.75,0,0,1,0-2.47h0a1.76,1.76,0,0,1,2.48,0h0a1.74,1.74,0,0,1-.05,2.47h0a1.73,1.73,0,0,1-1.21.5h0A1.73,1.73,0,0,1,267.27,524Zm-3.45-3.58a1.74,1.74,0,0,1,0-2.47h0a1.74,1.74,0,0,1,2.47.05h0a1.75,1.75,0,0,1,0,2.47h0a1.79,1.79,0,0,1-1.22.49h0A1.71,1.71,0,0,1,263.82,520.4Zm-3.46-3.57a1.76,1.76,0,0,1,0-2.48h0a1.75,1.75,0,0,1,2.47,0h0a1.75,1.75,0,0,1,0,2.47h0a1.74,1.74,0,0,1-1.21.49h0A1.76,1.76,0,0,1,260.36,516.83Z" transform="translate(-245.02 -446.56)"/><path class="cls-1" d="M292.72,549.57a1.86,1.86,0,0,1-.34,0,1.59,1.59,0,0,1-.33-.1,1.78,1.78,0,0,1-.57-.38,2.75,2.75,0,0,1-.22-.26,2,2,0,0,1-.26-.63,2,2,0,0,1,0-.34,2.07,2.07,0,0,1,0-.35,3,3,0,0,1,.1-.32,2.11,2.11,0,0,1,.16-.3,1.72,1.72,0,0,1,.49-.49,2.11,2.11,0,0,1,.3-.16,1.59,1.59,0,0,1,.33-.1,1.94,1.94,0,0,1,.68,0,2.07,2.07,0,0,1,.33.1l.3.16a2.75,2.75,0,0,1,.26.22,1.78,1.78,0,0,1,.38.57,1.7,1.7,0,0,1,.1.32,2.07,2.07,0,0,1,0,.35,2,2,0,0,1,0,.34,1.7,1.7,0,0,1-.1.32,1.82,1.82,0,0,1-.16.31,2.05,2.05,0,0,1-.48.48,2.19,2.19,0,0,1-.3.16,1.94,1.94,0,0,1-.67.14Z" transform="translate(-245.02 -446.56)"/><path class="cls-2" d="M295.85,547a1.74,1.74,0,0,1,1.27-2.12h0a1.74,1.74,0,0,1,2.12,1.27h0a1.76,1.76,0,0,1-1.27,2.12h0a2.18,2.18,0,0,1-.43.05h0A1.74,1.74,0,0,1,295.85,547Zm4.82-1.21a1.76,1.76,0,0,1,1.28-2.12h0a1.74,1.74,0,0,1,2.11,1.28h0a1.75,1.75,0,0,1-1.27,2.12h0a2,2,0,0,1-.42,0h0A1.76,1.76,0,0,1,300.67,545.83Zm4.83-1.2a1.75,1.75,0,0,1,1.27-2.12h0a1.75,1.75,0,0,1,2.12,1.27h0a1.74,1.74,0,0,1-1.27,2.12h0a1.58,1.58,0,0,1-.43.05h0A1.75,1.75,0,0,1,305.5,544.63Zm4.83-1.21a1.73,1.73,0,0,1,1.27-2.11h0a1.74,1.74,0,0,1,2.12,1.27h0a1.75,1.75,0,0,1-1.28,2.12h0a2,2,0,0,1-.42,0h0A1.75,1.75,0,0,1,310.33,543.42Zm4.82-1.2a1.76,1.76,0,0,1,1.28-2.12h0a1.75,1.75,0,0,1,2.11,1.27h0a1.74,1.74,0,0,1-1.27,2.12h0a1.52,1.52,0,0,1-.42.06h0A1.75,1.75,0,0,1,315.15,542.22ZM320,541a1.75,1.75,0,0,1,1.27-2.12h0a1.75,1.75,0,0,1,2.12,1.27h0a1.74,1.74,0,0,1-1.27,2.12h0a1.58,1.58,0,0,1-.43.05h0A1.75,1.75,0,0,1,320,541Zm4.83-1.21a1.73,1.73,0,0,1,1.27-2.11h0A1.75,1.75,0,0,1,328.2,539h0a1.76,1.76,0,0,1-1.27,2.12h0a2.18,2.18,0,0,1-.43,0h0A1.74,1.74,0,0,1,324.81,539.81Zm4.82-1.2a1.76,1.76,0,0,1,1.28-2.12h0a1.74,1.74,0,0,1,2.11,1.28h0a1.73,1.73,0,0,1-1.27,2.11h0a1.52,1.52,0,0,1-.42.06h0A1.75,1.75,0,0,1,329.63,538.61Zm4.83-1.2a1.75,1.75,0,0,1,1.27-2.12h0a1.75,1.75,0,0,1,2.12,1.27h0a1.75,1.75,0,0,1-1.27,2.12h0a1.63,1.63,0,0,1-.43.05h0A1.75,1.75,0,0,1,334.46,537.41Z" transform="translate(-245.02 -446.56)"/><path class="cls-1" d="M336.18,450.37a1.55,1.55,0,0,1-.37,0,1.64,1.64,0,0,1-.69-.28l-.29-.23a1.7,1.7,0,0,1-.23-.3,2,2,0,0,1-.18-.32,1.65,1.65,0,0,1-.11-.36,2.33,2.33,0,0,1,0-.37,2.45,2.45,0,0,1,0-.38,1.42,1.42,0,0,1,.11-.35,1.74,1.74,0,0,1,.18-.33,1.63,1.63,0,0,1,.23-.29,1.91,1.91,0,0,1,2.7,0,1.68,1.68,0,0,1,.24.29,2.55,2.55,0,0,1,.17.33,1.42,1.42,0,0,1,.11.35,2.45,2.45,0,0,1,0,.38,2,2,0,0,1-.56,1.35l-.29.23a2.11,2.11,0,0,1-.33.18,2.42,2.42,0,0,1-.36.1A1.55,1.55,0,0,1,336.18,450.37Z" transform="translate(-245.02 -446.56)"/><path class="cls-1" d="M328.86,448.47a1.91,1.91,0,0,1,1.91-1.91h0a1.91,1.91,0,0,1,1.91,1.91h0a1.91,1.91,0,0,1-1.91,1.9h0A1.91,1.91,0,0,1,328.86,448.47Zm-5.4,0a1.9,1.9,0,0,1,1.9-1.91h0a1.91,1.91,0,0,1,1.91,1.91h0a1.91,1.91,0,0,1-1.91,1.9h0A1.9,1.9,0,0,1,323.46,448.47Zm-5.41,0a1.9,1.9,0,0,1,1.9-1.91h0a1.91,1.91,0,0,1,1.91,1.91h0a1.91,1.91,0,0,1-1.91,1.9h0A1.9,1.9,0,0,1,318.05,448.47Zm-5.41,0a1.9,1.9,0,0,1,1.9-1.91h0a1.91,1.91,0,0,1,1.91,1.91h0a1.91,1.91,0,0,1-1.91,1.9h0A1.9,1.9,0,0,1,312.64,448.47Zm-5.42,0a1.91,1.91,0,0,1,1.91-1.91h0a1.9,1.9,0,0,1,1.91,1.91h0a1.9,1.9,0,0,1-1.91,1.9h0A1.91,1.91,0,0,1,307.22,448.47Zm-5.4,0a1.9,1.9,0,0,1,1.9-1.91h0a1.9,1.9,0,0,1,1.91,1.91h0a1.9,1.9,0,0,1-1.91,1.9h0A1.9,1.9,0,0,1,301.82,448.47Zm-5.41,0a1.9,1.9,0,0,1,1.9-1.91h0a1.91,1.91,0,0,1,1.91,1.91h0a1.91,1.91,0,0,1-1.91,1.9h0A1.9,1.9,0,0,1,296.41,448.47Zm-5.41,0a1.9,1.9,0,0,1,1.9-1.91h0a1.9,1.9,0,0,1,1.91,1.91h0a1.9,1.9,0,0,1-1.91,1.9h0A1.9,1.9,0,0,1,291,448.47Zm-5.41,0a1.9,1.9,0,0,1,1.9-1.91h0a1.9,1.9,0,0,1,1.91,1.91h0a1.9,1.9,0,0,1-1.91,1.9h0A1.9,1.9,0,0,1,285.59,448.47Zm-5.41,0a1.9,1.9,0,0,1,1.9-1.91h0a1.9,1.9,0,0,1,1.91,1.91h0a1.9,1.9,0,0,1-1.91,1.9h0A1.9,1.9,0,0,1,280.18,448.47Z" transform="translate(-245.02 -446.56)"/><path class="cls-1" d="M276.67,450.37a1.55,1.55,0,0,1-.37,0,2.42,2.42,0,0,1-.36-.1,2,2,0,0,1-.32-.18,1.73,1.73,0,0,1-.29-.23,1.76,1.76,0,0,1-.24-.3,2,2,0,0,1-.18-.32,2.42,2.42,0,0,1-.1-.36,1.55,1.55,0,0,1,0-.37,1.64,1.64,0,0,1,0-.38,2,2,0,0,1,.1-.35,1.74,1.74,0,0,1,.18-.33,1.68,1.68,0,0,1,.24-.29,1.37,1.37,0,0,1,.29-.24,2,2,0,0,1,.32-.18,2.42,2.42,0,0,1,.36-.1,1.89,1.89,0,0,1,.75,0,2,2,0,0,1,.35.1,1.74,1.74,0,0,1,.33.18,1.37,1.37,0,0,1,.29.24,1.68,1.68,0,0,1,.24.29,1.29,1.29,0,0,1,.17.33,1.42,1.42,0,0,1,.11.35,1.64,1.64,0,0,1,0,.38,1.92,1.92,0,0,1-.56,1.35,2.18,2.18,0,0,1-.62.41,2,2,0,0,1-.35.1A1.64,1.64,0,0,1,276.67,450.37Z" transform="translate(-245.02 -446.56)"/><path class="cls-2" d="M248.67,497a1.91,1.91,0,0,1-.69-2.61h0a1.91,1.91,0,0,1,2.6-.7h0a1.92,1.92,0,0,1,.7,2.61h0a1.92,1.92,0,0,1-1.65,1h0A1.94,1.94,0,0,1,248.67,497Zm2.71-4.69a1.9,1.9,0,0,1-.7-2.6h0a1.9,1.9,0,0,1,2.6-.7h0a1.89,1.89,0,0,1,.7,2.6h0a1.91,1.91,0,0,1-1.65,1h0A1.91,1.91,0,0,1,251.38,492.28Zm2.7-4.68a1.92,1.92,0,0,1-.7-2.61h0a1.91,1.91,0,0,1,2.61-.69h0a1.91,1.91,0,0,1,.7,2.6h0a1.92,1.92,0,0,1-1.66,1h0A1.93,1.93,0,0,1,254.08,487.6Zm2.71-4.69a1.89,1.89,0,0,1-.7-2.6h0a1.9,1.9,0,0,1,2.6-.7h0a1.9,1.9,0,0,1,.7,2.6h0a1.91,1.91,0,0,1-1.65,1h0A1.84,1.84,0,0,1,256.79,482.91Zm2.7-4.69a1.91,1.91,0,0,1-.7-2.6h0a1.92,1.92,0,0,1,2.61-.7h0a1.91,1.91,0,0,1,.69,2.61h0a1.9,1.9,0,0,1-1.65,1h0A1.84,1.84,0,0,1,259.49,478.22Zm2.71-4.68a1.89,1.89,0,0,1-.7-2.6h0a1.89,1.89,0,0,1,2.6-.7h0a1.9,1.9,0,0,1,.7,2.6h0a1.89,1.89,0,0,1-1.65,1h0A1.94,1.94,0,0,1,262.2,473.54Zm2.7-4.68a1.92,1.92,0,0,1-.7-2.61h0a1.92,1.92,0,0,1,2.61-.7h0a1.92,1.92,0,0,1,.7,2.61h0a1.92,1.92,0,0,1-1.66.95h0A1.93,1.93,0,0,1,264.9,468.86Zm2.71-4.69a1.9,1.9,0,0,1-.7-2.6h0a1.9,1.9,0,0,1,2.6-.7h0a1.89,1.89,0,0,1,.7,2.6h0a1.89,1.89,0,0,1-1.65,1h0A1.94,1.94,0,0,1,267.61,464.17Zm2.7-4.68a1.91,1.91,0,0,1-.69-2.61h0a1.9,1.9,0,0,1,2.6-.69h0a1.91,1.91,0,0,1,.7,2.6h0a1.92,1.92,0,0,1-1.66.95h0A1.93,1.93,0,0,1,270.31,459.49ZM273,454.8a1.9,1.9,0,0,1-.7-2.6h0a1.9,1.9,0,0,1,2.6-.7h0a1.89,1.89,0,0,1,.7,2.6h0a1.91,1.91,0,0,1-1.65,1h0A1.91,1.91,0,0,1,273,454.8Z" transform="translate(-245.02 -446.56)"/><path class="cls-1" d="M246.92,501.91a2.33,2.33,0,0,1-.37,0,1.65,1.65,0,0,1-.36-.11l-.33-.17a2.17,2.17,0,0,1-.29-.24,3.25,3.25,0,0,1-.23-.29,1.74,1.74,0,0,1-.18-.33,2.47,2.47,0,0,1-.11-.36,2.3,2.3,0,0,1,0-.74,2.15,2.15,0,0,1,.11-.36,1.74,1.74,0,0,1,.18-.33,3.25,3.25,0,0,1,.23-.29,2,2,0,0,1,1.72-.52,1.65,1.65,0,0,1,.36.11,3.41,3.41,0,0,1,.33.17,2,2,0,0,1,.53.53,2.55,2.55,0,0,1,.17.33,2.15,2.15,0,0,1,.11.36,1.73,1.73,0,0,1,0,.74,2.47,2.47,0,0,1-.11.36,2.55,2.55,0,0,1-.17.33,2,2,0,0,1-.53.53l-.33.17a1.65,1.65,0,0,1-.36.11A2.21,2.21,0,0,1,246.92,501.91Z" transform="translate(-245.02 -446.56)"/><path class="cls-1" d="M272.32,547.8a1.91,1.91,0,0,1,.69-2.6h0a1.9,1.9,0,0,1,2.61.7h0a1.89,1.89,0,0,1-.7,2.6h0a1.94,1.94,0,0,1-.95.26h0A1.91,1.91,0,0,1,272.32,547.8Zm-2.71-4.68a1.92,1.92,0,0,1,.7-2.61h0a1.92,1.92,0,0,1,2.61.7h0a1.91,1.91,0,0,1-.7,2.6h0a1.84,1.84,0,0,1-1,.26h0A1.92,1.92,0,0,1,269.61,543.12Zm-2.7-4.69a1.9,1.9,0,0,1,.7-2.6h0a1.89,1.89,0,0,1,2.6.7h0a1.89,1.89,0,0,1-.7,2.6h0a1.94,1.94,0,0,1-.95.26h0A1.91,1.91,0,0,1,266.91,538.43Zm-2.71-4.68a1.92,1.92,0,0,1,.7-2.61h0a1.92,1.92,0,0,1,2.61.7h0a1.92,1.92,0,0,1-.7,2.61h0a1.93,1.93,0,0,1-.95.25h0A1.92,1.92,0,0,1,264.2,533.75Zm-2.7-4.69a1.89,1.89,0,0,1,.7-2.6h0a1.9,1.9,0,0,1,2.6.7h0a1.9,1.9,0,0,1-.7,2.6h0a1.94,1.94,0,0,1-1,.26h0A1.91,1.91,0,0,1,261.5,529.06Zm-2.71-4.68a1.92,1.92,0,0,1,.7-2.61h0a1.91,1.91,0,0,1,2.6.7h0a1.91,1.91,0,0,1-.69,2.61h0a1.93,1.93,0,0,1-.95.25h0A1.92,1.92,0,0,1,258.79,524.38Zm-2.7-4.69a1.89,1.89,0,0,1,.7-2.6h0a1.9,1.9,0,0,1,2.6.69h0a1.91,1.91,0,0,1-.7,2.61h0a1.9,1.9,0,0,1-.95.25h0A1.9,1.9,0,0,1,256.09,519.69ZM253.38,515a1.92,1.92,0,0,1,.7-2.61h0a1.91,1.91,0,0,1,2.6.7h0a1.9,1.9,0,0,1-.69,2.6h0a1.84,1.84,0,0,1-1,.26h0A1.92,1.92,0,0,1,253.38,515Zm-2.7-4.69a1.9,1.9,0,0,1,.7-2.6h0a1.89,1.89,0,0,1,2.6.7h0a1.89,1.89,0,0,1-.7,2.6h0a1.91,1.91,0,0,1-.95.26h0A1.89,1.89,0,0,1,250.68,510.32Zm-2.7-4.68a1.91,1.91,0,0,1,.69-2.61h0a1.92,1.92,0,0,1,2.61.7h0a1.91,1.91,0,0,1-.7,2.6h0a1.84,1.84,0,0,1-1,.26h0A1.9,1.9,0,0,1,248,505.64Z" transform="translate(-245.02 -446.56)"/><path class="cls-1" d="M276.67,553.44a1.55,1.55,0,0,1-.37,0,2.42,2.42,0,0,1-.36-.1,2,2,0,0,1-.32-.18,1.37,1.37,0,0,1-.29-.24,1.68,1.68,0,0,1-.24-.29,1.74,1.74,0,0,1-.18-.33,2,2,0,0,1-.1-.35,1.64,1.64,0,0,1,0-.38,1.88,1.88,0,0,1,.56-1.34,1.37,1.37,0,0,1,.29-.24,2,2,0,0,1,.32-.18,2.42,2.42,0,0,1,.36-.1,1.89,1.89,0,0,1,.75,0,2,2,0,0,1,.35.1,1.74,1.74,0,0,1,.33.18,1.37,1.37,0,0,1,.29.24,1.88,1.88,0,0,1,.56,1.34,1.64,1.64,0,0,1,0,.38,1.42,1.42,0,0,1-.11.35,1.29,1.29,0,0,1-.17.33,2,2,0,0,1-.53.53,1.74,1.74,0,0,1-.33.18,2,2,0,0,1-.35.1A1.64,1.64,0,0,1,276.67,553.44Z" transform="translate(-245.02 -446.56)"/><path class="cls-2" d="M328.86,551.53a1.91,1.91,0,0,1,1.91-1.9h0a1.91,1.91,0,0,1,1.91,1.9h0a1.91,1.91,0,0,1-1.91,1.91h0A1.91,1.91,0,0,1,328.86,551.53Zm-5.4,0a1.9,1.9,0,0,1,1.9-1.9h0a1.91,1.91,0,0,1,1.91,1.9h0a1.91,1.91,0,0,1-1.91,1.91h0A1.9,1.9,0,0,1,323.46,551.53Zm-5.41,0a1.9,1.9,0,0,1,1.9-1.9h0a1.91,1.91,0,0,1,1.91,1.9h0a1.91,1.91,0,0,1-1.91,1.91h0A1.9,1.9,0,0,1,318.05,551.53Zm-5.41,0a1.9,1.9,0,0,1,1.9-1.9h0a1.91,1.91,0,0,1,1.91,1.9h0a1.91,1.91,0,0,1-1.91,1.91h0A1.9,1.9,0,0,1,312.64,551.53Zm-5.42,0a1.91,1.91,0,0,1,1.91-1.9h0a1.9,1.9,0,0,1,1.91,1.9h0a1.9,1.9,0,0,1-1.91,1.91h0A1.91,1.91,0,0,1,307.22,551.53Zm-5.4,0a1.9,1.9,0,0,1,1.9-1.9h0a1.9,1.9,0,0,1,1.91,1.9h0a1.9,1.9,0,0,1-1.91,1.91h0A1.9,1.9,0,0,1,301.82,551.53Zm-5.41,0a1.9,1.9,0,0,1,1.9-1.9h0a1.91,1.91,0,0,1,1.91,1.9h0a1.91,1.91,0,0,1-1.91,1.91h0A1.9,1.9,0,0,1,296.41,551.53Zm-5.41,0a1.9,1.9,0,0,1,1.9-1.9h0a1.9,1.9,0,0,1,1.91,1.9h0a1.9,1.9,0,0,1-1.91,1.91h0A1.9,1.9,0,0,1,291,551.53Zm-5.41,0a1.9,1.9,0,0,1,1.9-1.9h0a1.9,1.9,0,0,1,1.91,1.9h0a1.9,1.9,0,0,1-1.91,1.91h0A1.9,1.9,0,0,1,285.59,551.53Zm-5.41,0a1.9,1.9,0,0,1,1.9-1.9h0a1.9,1.9,0,0,1,1.91,1.9h0a1.9,1.9,0,0,1-1.91,1.91h0A1.9,1.9,0,0,1,280.18,551.53Z" transform="translate(-245.02 -446.56)"/><path class="cls-1" d="M336.18,553.44a1.55,1.55,0,0,1-.37,0,2.42,2.42,0,0,1-.36-.1,2.68,2.68,0,0,1-.33-.18,2.17,2.17,0,0,1-.29-.24,1.63,1.63,0,0,1-.23-.29,1.74,1.74,0,0,1-.18-.33,1.42,1.42,0,0,1-.11-.35,2.45,2.45,0,0,1,0-.38,1.92,1.92,0,0,1,.56-1.34,1.89,1.89,0,0,1,1.72-.52,2.42,2.42,0,0,1,.36.1,1.74,1.74,0,0,1,.33.18,2.17,2.17,0,0,1,.29.24,1.92,1.92,0,0,1,.56,1.34,2.45,2.45,0,0,1,0,.38,2,2,0,0,1-.11.35,2.55,2.55,0,0,1-.17.33,1.68,1.68,0,0,1-.24.29,2.17,2.17,0,0,1-.29.24,2.11,2.11,0,0,1-.33.18,2.42,2.42,0,0,1-.36.1A1.55,1.55,0,0,1,336.18,553.44Z" transform="translate(-245.02 -446.56)"/><path class="cls-1" d="M337.93,548.5a1.9,1.9,0,0,1-.69-2.6h0a1.89,1.89,0,0,1,2.6-.7h0a1.91,1.91,0,0,1,.7,2.6h0a1.93,1.93,0,0,1-1.66,1h0A1.94,1.94,0,0,1,337.93,548.5Zm2.71-4.69a1.9,1.9,0,0,1-.7-2.6h0a1.91,1.91,0,0,1,2.6-.7h0a1.9,1.9,0,0,1,.7,2.61h0a1.9,1.9,0,0,1-1.65,1h0A1.81,1.81,0,0,1,340.64,543.81Zm2.7-4.68a1.9,1.9,0,0,1-.69-2.6h0a1.89,1.89,0,0,1,2.6-.7h0a1.91,1.91,0,0,1,.7,2.6h0a1.93,1.93,0,0,1-1.66,1h0A1.94,1.94,0,0,1,343.34,539.13Zm2.71-4.68a1.9,1.9,0,0,1-.7-2.61h0a1.91,1.91,0,0,1,2.6-.7h0a1.91,1.91,0,0,1,.7,2.61h0a1.9,1.9,0,0,1-1.65,1h0A1.9,1.9,0,0,1,346.05,534.45Zm2.7-4.69a1.91,1.91,0,0,1-.7-2.6h0a1.91,1.91,0,0,1,2.61-.7h0a1.9,1.9,0,0,1,.69,2.6h0a1.91,1.91,0,0,1-1.65,1h0A1.94,1.94,0,0,1,348.75,529.76Zm2.71-4.68a1.9,1.9,0,0,1-.7-2.61h0a1.91,1.91,0,0,1,2.6-.7h0a1.91,1.91,0,0,1,.7,2.61h0a1.9,1.9,0,0,1-1.65,1h0A1.9,1.9,0,0,1,351.46,525.08Zm2.7-4.69a1.92,1.92,0,0,1-.7-2.61h0a1.91,1.91,0,0,1,2.61-.69h0a1.9,1.9,0,0,1,.69,2.6h0a1.9,1.9,0,0,1-1.65.95h0A1.93,1.93,0,0,1,354.16,520.39Zm2.71-4.69a1.89,1.89,0,0,1-.7-2.6h0a1.91,1.91,0,0,1,2.6-.7h0a1.91,1.91,0,0,1,.7,2.61h0a1.9,1.9,0,0,1-1.65,1h0A1.84,1.84,0,0,1,356.87,515.7Zm2.7-4.68a1.91,1.91,0,0,1-.7-2.6h0a1.9,1.9,0,0,1,2.61-.7h0a1.91,1.91,0,0,1,.7,2.6h0a1.91,1.91,0,0,1-1.66,1h0A1.94,1.94,0,0,1,359.57,511Zm2.71-4.69a1.9,1.9,0,0,1-.7-2.6h0a1.91,1.91,0,0,1,2.6-.7h0a1.9,1.9,0,0,1,.7,2.61h0a1.91,1.91,0,0,1-1.65.95h0A1.81,1.81,0,0,1,362.28,506.33Z" transform="translate(-245.02 -446.56)"/><path class="cls-1" d="M365.93,501.91a2.46,2.46,0,0,1-.37,0,1.42,1.42,0,0,1-.35-.11,1.71,1.71,0,0,1-.33-.17,1.68,1.68,0,0,1-.29-.24A1.92,1.92,0,0,1,364,500a1.55,1.55,0,0,1,0-.37,2.42,2.42,0,0,1,.1-.36,1.74,1.74,0,0,1,.18-.33,2.17,2.17,0,0,1,.24-.29,1.68,1.68,0,0,1,.29-.24,1.71,1.71,0,0,1,.33-.17,1.42,1.42,0,0,1,.35-.11,1.94,1.94,0,0,1,1.72.52,2.17,2.17,0,0,1,.24.29,1.29,1.29,0,0,1,.17.33,1.65,1.65,0,0,1,.11.36,1.55,1.55,0,0,1,0,.37,1.92,1.92,0,0,1-.56,1.35,1.68,1.68,0,0,1-.29.24,1.71,1.71,0,0,1-.33.17,1.42,1.42,0,0,1-.35.11A2.45,2.45,0,0,1,365.93,501.91Z" transform="translate(-245.02 -446.56)"/><path class="cls-2" d="M361.58,496.27a1.91,1.91,0,0,1,.7-2.61h0a1.91,1.91,0,0,1,2.6.7h0a1.9,1.9,0,0,1-.7,2.61h0a1.93,1.93,0,0,1-.95.25h0A1.9,1.9,0,0,1,361.58,496.27Zm-2.71-4.69a1.91,1.91,0,0,1,.7-2.6h0a1.91,1.91,0,0,1,2.61.7h0a1.91,1.91,0,0,1-.7,2.6h0a1.94,1.94,0,0,1-1,.26h0A1.93,1.93,0,0,1,358.87,491.58Zm-2.7-4.68a1.9,1.9,0,0,1,.7-2.61h0a1.91,1.91,0,0,1,2.6.7h0a1.91,1.91,0,0,1-.7,2.61h0a1.93,1.93,0,0,1-.95.25h0A1.9,1.9,0,0,1,356.17,486.9Zm-2.71-4.69a1.91,1.91,0,0,1,.7-2.6h0a1.9,1.9,0,0,1,2.6.7h0a1.9,1.9,0,0,1-.69,2.6h0a1.84,1.84,0,0,1-.95.26h0A1.93,1.93,0,0,1,353.46,482.21Zm-2.7-4.68a1.9,1.9,0,0,1,.7-2.61h0a1.91,1.91,0,0,1,2.6.7h0a1.91,1.91,0,0,1-.7,2.61h0a1.9,1.9,0,0,1-.95.25h0A1.9,1.9,0,0,1,350.76,477.53Zm-2.71-4.69a1.91,1.91,0,0,1,.7-2.6h0a1.89,1.89,0,0,1,2.6.7h0a1.9,1.9,0,0,1-.69,2.6h0a1.94,1.94,0,0,1-1,.26h0A1.91,1.91,0,0,1,348.05,472.84Zm-2.7-4.68a1.91,1.91,0,0,1,.7-2.61h0a1.91,1.91,0,0,1,2.6.7h0a1.91,1.91,0,0,1-.7,2.61h0a1.9,1.9,0,0,1-.95.25h0A1.9,1.9,0,0,1,345.35,468.16Zm-2.71-4.69a1.91,1.91,0,0,1,.7-2.6h0a1.91,1.91,0,0,1,2.61.7h0a1.91,1.91,0,0,1-.7,2.6h0a1.94,1.94,0,0,1-.95.26h0A1.91,1.91,0,0,1,342.64,463.47Zm-2.7-4.68a1.9,1.9,0,0,1,.7-2.6h0a1.9,1.9,0,0,1,2.6.69h0a1.9,1.9,0,0,1-.7,2.61h0a1.9,1.9,0,0,1-1,.25h0A1.9,1.9,0,0,1,339.94,458.79Zm-2.7-4.69a1.9,1.9,0,0,1,.69-2.6h0a1.91,1.91,0,0,1,2.61.7h0a1.91,1.91,0,0,1-.7,2.6h0a1.94,1.94,0,0,1-.95.26h0A1.91,1.91,0,0,1,337.24,454.1Z" transform="translate(-245.02 -446.56)"/><path class="cls-2" d="M394.22,513.59l1.55-2.7a20.46,20.46,0,0,0,12.67,4.25c7.41,0,10.37-2.63,10.37-6.6,0-10.25-23.31-2.7-23.31-16.51,0-5.33,4.45-9.64,13.34-9.64,4.45,0,9.3,1.35,12.06,3.44l-1.55,2.69a18.07,18.07,0,0,0-10.58-3.17c-6.87,0-9.9,2.83-9.9,6.61,0,10.58,23.31,3.1,23.31,16.51,0,5.73-4.92,9.63-13.88,9.63C402.51,518.1,397,516.15,394.22,513.59Z" transform="translate(-245.02 -446.56)"/><path class="cls-2" d="M489.44,497.28v20.55h-3.37V497.55c0-7.95-4.11-12.13-11-12.13-7.95,0-12.87,5.32-12.87,13.68v18.73h-3.37V497.55c0-7.95-4.11-12.13-11-12.13-7.95,0-12.87,5.32-12.87,13.68v18.73h-3.37V482.66h3.23v7.55c2.29-4.92,7.08-7.82,13.48-7.82s11,2.9,12.87,8.49c2.29-5.12,7.41-8.49,14.22-8.49C483.91,482.39,489.44,487.44,489.44,497.28Z" transform="translate(-245.02 -446.56)"/><path class="cls-2" d="M526.13,495.53v22.3H522.9v-6.26c-2.23,4-6.54,6.53-12.67,6.53-7.89,0-12.67-4-12.67-10,0-5.32,3.37-9.84,13.14-9.84h12.06v-2.83c0-6.53-3.57-10-10.44-10a18.22,18.22,0,0,0-12.13,4.45l-1.69-2.42a21.48,21.48,0,0,1,14.09-5C521.28,482.39,526.13,486.84,526.13,495.53Zm-3.37,11.93v-6.61h-12c-7.28,0-9.84,3-9.84,7.08,0,4.58,3.57,7.41,9.77,7.41C516.63,515.34,520.74,512.51,522.76,507.46Z" transform="translate(-245.02 -446.56)"/><path class="cls-2" d="M552.34,482.39v3.3c-.27,0-.54-.07-.81-.07-7.82,0-12.47,5.19-12.47,13.89v18.32h-3.37V482.66h3.24v7.68C541.09,485.22,545.74,482.39,552.34,482.39Z" transform="translate(-245.02 -446.56)"/><path class="cls-2" d="M582.44,515.61a10.67,10.67,0,0,1-7.21,2.49c-6.2,0-9.57-3.63-9.57-9.56v-23h-6.47v-2.9h6.47V475H569v7.68h11.18v2.9H569V508.2c0,4.51,2.22,7,6.53,7a8.08,8.08,0,0,0,5.46-2Z" transform="translate(-245.02 -446.56)"/><path class="cls-1" d="M625.82,486.84c0,10-7.28,16.1-19.28,16.1H593.87v14.89h-5V470.66h17.65C618.54,470.66,625.82,476.73,625.82,486.84Zm-5,0c0-7.55-5-11.86-14.42-11.86H593.87v23.58h12.54C615.84,498.56,620.83,494.25,620.83,486.84Z" transform="translate(-245.02 -446.56)"/><path class="cls-1" d="M666.47,482.39v35.44h-4.58v-6.46c-2.49,4.31-7.07,6.8-12.73,6.8-9,0-15-5-15-15.23V482.39H639v20.08c0,7.55,3.91,11.39,10.65,11.39,7.41,0,12.06-4.79,12.06-12.87v-18.6Z" transform="translate(-245.02 -446.56)"/><path class="cls-1" d="M674.7,467.83h4.79v50H674.7Z" transform="translate(-245.02 -446.56)"/><path class="cls-1" d="M687.05,513.79,689.2,510a21.45,21.45,0,0,0,12.6,4c6.74,0,9.5-2.29,9.5-5.79,0-9.23-23-2-23-16,0-5.8,5-10.11,14-10.11,4.58,0,9.57,1.28,12.54,3.3l-2.09,3.84a18.23,18.23,0,0,0-10.45-3c-6.4,0-9.23,2.49-9.23,5.86,0,9.57,23,2.36,23,16,0,6.14-5.39,10.11-14.62,10.11C695.6,518.17,689.94,516.28,687.05,513.79Z" transform="translate(-245.02 -446.56)"/><path class="cls-1" d="M754.92,501.59H725.27c.54,7.42,6.2,12.34,14,12.34a14,14,0,0,0,10.85-4.65l2.69,3.1c-3.17,3.77-8.09,5.79-13.68,5.79-11.05,0-18.6-7.55-18.6-18.06s7.35-18,17.32-18,17.18,7.34,17.18,18C755,500.52,754.92,501.06,754.92,501.59ZM725.27,498H750.4c-.6-6.94-5.66-11.79-12.6-11.79S725.87,491.08,725.27,498Z" transform="translate(-245.02 -446.56)"/></svg>